<?xml version="1.0" standalone="no"?>
<!DOCTYPE svg PUBLIC "-//W3C//DTD SVG 20010904//EN"
 "http://www.w3.org/TR/2001/REC-SVG-20010904/DTD/svg10.dtd">
<svg version="1.0" xmlns="http://www.w3.org/2000/svg"
 width="1036.000000pt" height="1036.000000pt" viewBox="0 0 1036.000000 1036.000000"
 preserveAspectRatio="xMidYMid meet">
<metadata>
Created by potrace 1.14, written by Peter Selinger 2001-2017
</metadata>
<g transform="translate(0.000000,1036.000000) scale(0.100000,-0.100000)"
fill="#000000" stroke="none">
<path d="M1675 10338 c6 -19 5 -21 -6 -10 -25 23 -42 15 -35 -18 5 -26 3 -30
-17 -31 -20 0 -21 -1 -3 -8 14 -5 16 -10 8 -15 -7 -4 -16 -4 -22 -1 -5 3 -10
-3 -10 -14 0 -26 -25 -28 -39 -3 -6 9 -11 11 -11 5 0 -7 -5 -13 -11 -13 -7 0
-9 10 -5 25 4 14 2 25 -4 25 -5 0 -10 -4 -10 -10 0 -6 -9 -6 -26 0 -35 14 -44
6 -45 -38 -1 -20 -3 -30 -6 -21 -7 27 -53 30 -85 6 -21 -16 -25 -23 -16 -34
16 -20 2 -27 -29 -15 -55 22 -98 25 -113 7 -12 -14 -11 -16 11 -12 13 2 18 2
12 0 -21 -7 -15 -23 8 -23 11 0 17 -5 14 -10 -4 -7 -13 -6 -27 1 -16 9 -24 7
-41 -9 -12 -11 -28 -17 -34 -15 -7 3 -13 0 -13 -6 0 -6 -7 -8 -15 -5 -9 4 -15
0 -15 -10 0 -10 -9 -16 -25 -16 -25 0 -25 1 -9 25 16 25 16 27 -4 45 -14 13
-23 16 -28 9 -3 -6 -17 -8 -31 -4 -23 5 -24 4 -17 -32 9 -50 10 -52 36 -45 27
7 15 -16 -16 -28 l-21 -9 21 0 c16 -1 22 -7 22 -26 0 -13 -7 -30 -14 -36 -8
-6 -14 -17 -14 -24 0 -22 -28 -26 -35 -4 -8 23 -21 25 -29 4 -6 -17 -56 -21
-56 -5 0 6 6 10 14 8 30 -6 18 18 -17 35 -21 10 -37 25 -37 33 0 18 9 18 29 0
9 -8 30 -18 46 -22 l30 -7 -25 28 c-14 16 -18 24 -10 19 19 -11 60 -13 60 -2
0 4 -10 9 -22 9 -17 1 -19 2 -5 6 9 2 17 9 17 14 0 8 -7 10 -50 13 -8 1 -21 5
-28 9 -8 5 -19 4 -28 -4 -13 -11 -19 -8 -39 17 -27 34 -40 29 -20 -8 11 -23
11 -29 0 -38 -8 -7 -19 -9 -25 -5 -10 6 -15 -20 -11 -59 1 -16 -1 -17 -16 -5
-46 37 -54 49 -38 55 17 7 21 34 5 34 -5 0 -10 -7 -10 -15 0 -8 -7 -15 -15
-15 -18 0 -21 -50 -3 -68 9 -9 8 -12 -5 -12 -10 0 -20 7 -23 15 -9 23 -22 9
-17 -18 4 -19 10 -23 30 -19 21 4 24 1 21 -19 -2 -16 -9 -23 -20 -21 -9 1 -19
-2 -23 -8 -4 -6 4 -10 19 -10 26 0 31 -10 27 -52 -1 -9 3 -19 10 -23 11 -7
-36 -29 -88 -42 -13 -3 -20 -10 -16 -19 3 -8 0 -14 -5 -14 -6 0 -13 8 -15 18
-3 11 -5 7 -6 -10 0 -14 5 -28 12 -31 6 -2 8 -8 4 -13 -4 -5 -12 -2 -16 5 -11
18 -31 5 -31 -20 0 -23 -16 -25 -36 -4 -21 21 -90 20 -98 -1 -3 -9 -4 -20 0
-25 3 -5 -2 -9 -10 -9 -9 0 -16 5 -16 10 0 6 -7 10 -15 10 -8 0 -15 5 -15 10
0 6 7 10 15 10 26 0 14 31 -17 43 -10 3 -18 11 -18 17 0 12 16 14 23 3 2 -5 2
-2 0 5 -1 8 -3 20 -3 28 0 8 -7 14 -16 14 -8 0 -12 5 -9 10 3 6 1 10 -5 10 -6
0 -8 5 -5 10 3 6 15 10 26 10 10 0 19 4 19 9 0 5 -16 5 -37 0 -56 -13 -61 -11
-28 11 17 11 36 18 43 15 8 -3 21 3 30 12 16 15 16 16 0 11 -9 -4 -19 -4 -23
0 -3 4 9 12 27 18 27 10 29 13 11 13 -25 1 -30 20 -11 40 11 11 10 13 -4 8
-12 -4 -18 -1 -18 8 0 7 10 17 23 21 29 9 69 52 61 66 -5 7 -11 5 -19 -6 -11
-15 -13 -14 -20 6 -7 20 -8 18 -14 -17 -6 -36 -7 -37 -13 -15 -4 14 -5 34 -3
45 2 11 4 24 4 29 1 4 10 6 21 3 11 -3 20 -1 20 4 0 5 -11 11 -25 15 -40 10
-19 23 22 13 41 -9 47 -6 58 29 5 19 3 22 -19 22 -14 0 -27 -4 -30 -9 -3 -4
-16 -6 -30 -4 -13 3 -33 0 -44 -6 -15 -8 -23 -8 -28 0 -5 8 -10 6 -16 -5 -5
-9 -16 -16 -23 -16 -8 0 -15 -4 -15 -10 0 -5 -11 -10 -25 -10 -14 0 -25 -4
-25 -9 0 -6 18 -8 41 -5 27 3 39 1 34 -6 -3 -5 -24 -10 -46 -10 -45 0 -57 -16
-39 -50 7 -13 13 -33 15 -46 2 -20 -2 -24 -26 -24 -25 0 -27 -3 -24 -30 3 -25
1 -30 -17 -30 -20 0 -21 -1 -4 -13 15 -11 16 -15 3 -25 -16 -13 -50 -6 -41 9
3 5 0 9 -6 9 -17 0 -23 -29 -10 -45 10 -12 9 -15 -9 -15 -11 0 -21 -4 -21 -10
0 -5 4 -10 9 -10 13 0 51 -63 44 -73 -3 -6 -12 1 -19 14 -7 13 -13 18 -14 11
0 -7 5 -23 11 -34 8 -15 8 -19 0 -14 -6 4 -11 1 -11 -8 0 -8 -6 -17 -12 -20
-10 -4 -10 -8 -2 -11 7 -3 10 -14 7 -25 -3 -11 0 -18 9 -17 7 0 35 -1 61 -1
40 -2 48 -5 45 -19 -2 -10 -12 -18 -23 -18 -13 0 -21 -8 -23 -23 -3 -20 -1
-22 15 -13 22 11 100 3 109 -11 4 -6 -5 -8 -24 -3 -18 3 -33 2 -37 -4 -11 -18
-35 -13 -29 7 5 15 4 15 -10 -2 -15 -18 -16 -18 -35 5 -17 22 -21 22 -45 10
-14 -8 -24 -16 -21 -19 2 -3 12 1 21 9 16 13 16 12 6 -7 -14 -27 -8 -167 7
-172 6 -2 8 -14 5 -28 -4 -15 -2 -24 6 -24 6 0 8 -4 5 -10 -3 -5 0 -7 8 -4 9
3 17 -3 20 -17 4 -15 11 -20 22 -16 13 6 14 3 4 -16 -7 -12 -17 -25 -22 -29
-19 -12 21 -58 49 -58 22 0 24 -2 14 -15 -6 -8 -9 -19 -5 -25 4 -6 1 -17 -5
-25 -10 -12 -9 -15 4 -15 9 0 16 5 16 10 0 17 37 11 44 -6 6 -16 8 -16 24 0
20 17 42 21 42 7 0 -4 12 -8 28 -8 15 -1 36 -3 47 -6 11 -2 26 0 33 6 9 7 12
4 12 -12 0 -17 -4 -21 -19 -16 -15 5 -18 1 -13 -20 2 -14 11 -25 20 -25 11 0
8 -8 -13 -30 -31 -32 -55 -39 -55 -15 0 28 -39 17 -46 -12 -4 -16 -14 -33 -23
-40 -15 -11 -14 -12 0 -13 22 0 35 -65 18 -86 -8 -10 -8 -14 0 -14 21 0 11
-29 -12 -33 l-22 -4 23 -8 c12 -4 23 -12 24 -19 6 -48 20 -76 39 -76 11 0 19
-4 19 -10 0 -5 -9 -10 -20 -10 -11 0 -23 -8 -26 -17 -16 -49 -16 -49 -27 -25
-11 24 -36 29 -55 10 -19 -19 -14 -26 15 -20 25 5 26 3 20 -29 -3 -19 -3 -28
0 -21 3 9 11 7 29 -7 14 -11 33 -17 44 -14 11 3 20 1 20 -5 0 -5 9 -12 20 -15
11 -3 18 -1 15 3 -3 5 4 15 16 24 12 8 18 19 14 25 -4 8 5 10 27 9 31 -3 33
-1 32 30 -2 36 2 39 28 15 10 -9 21 -13 26 -9 4 4 0 13 -9 19 -25 19 -30 54
-8 60 11 3 17 1 14 -3 -9 -14 7 -40 24 -40 10 0 24 -11 31 -25 7 -14 20 -25
27 -25 7 0 16 -7 19 -15 7 -17 50 -20 60 -4 3 6 0 15 -7 20 -7 4 -11 11 -7 14
10 10 39 -26 31 -38 -12 -18 -10 -58 2 -54 5 2 14 13 20 25 10 23 30 29 40 12
3 -5 19 -10 35 -10 16 0 32 5 35 10 10 16 25 12 19 -5 -7 -17 11 -21 21 -5 3
6 12 10 20 10 14 0 15 -16 2 -37 -5 -8 -3 -13 4 -13 9 0 9 -4 -1 -15 -17 -20
-4 -38 20 -25 16 8 19 7 17 -10 -1 -11 -5 -20 -9 -20 -4 0 -8 -6 -8 -14 0 -14
-78 -33 -110 -27 -82 15 -199 21 -205 11 -4 -6 7 -10 27 -10 27 0 34 -4 35
-20 1 -11 -4 -20 -12 -20 -7 0 -16 -7 -19 -16 -5 -13 -9 -14 -21 -4 -12 10
-15 7 -21 -14 -7 -29 -38 -36 -48 -10 -5 12 -8 13 -20 2 -11 -10 -11 -15 -1
-20 7 -5 10 -18 7 -34 -3 -19 -7 -22 -13 -12 -5 7 -19 14 -31 15 -89 7 -119
12 -132 25 -23 24 -66 11 -66 -18 0 -17 6 -24 19 -24 35 0 51 -12 51 -37 0
-20 -4 -23 -20 -18 -14 4 -20 2 -20 -9 0 -14 -38 -19 -50 -6 -29 31 -140 43
-140 15 0 -8 -4 -15 -10 -15 -5 0 -10 7 -10 15 0 8 -8 15 -17 14 -11 0 -13 -3
-6 -6 10 -3 9 -10 -3 -28 -8 -12 -13 -27 -12 -33 2 -6 -6 -18 -17 -26 -18 -14
-18 -15 -2 -16 18 0 25 -20 6 -20 -6 0 -9 -6 -6 -14 4 -10 -2 -16 -15 -18 -27
-4 -36 -28 -11 -29 10 0 13 -3 6 -6 -7 -2 -13 -9 -13 -14 0 -5 6 -8 13 -7 8 2
11 -8 9 -29 -2 -28 1 -33 20 -34 13 0 32 -5 43 -10 17 -8 16 -8 -7 -4 -27 5
-47 -8 -29 -20 11 -6 3 -36 -13 -47 -8 -6 -8 -10 0 -15 15 -10 15 -64 0 -62
-6 1 -18 1 -26 0 -13 -1 -13 -2 0 -11 8 -5 15 -20 16 -32 0 -13 4 -31 9 -41 5
-11 2 -24 -9 -36 -22 -24 -20 -34 3 -21 28 15 33 13 26 -10 -5 -15 -2 -20 10
-20 12 0 16 6 12 19 -3 13 1 21 14 24 22 6 29 0 29 -28 0 -28 -43 -75 -68 -75
-39 0 -80 -61 -50 -73 10 -4 10 -8 -1 -15 -19 -14 -6 -43 15 -35 14 5 16 3 11
-11 -4 -10 -7 -25 -7 -33 0 -11 -3 -13 -13 -5 -8 7 -17 7 -30 -2 -22 -17 -22
-28 -1 -24 10 2 19 -3 21 -9 3 -7 -1 -13 -7 -13 -7 0 -9 -8 -5 -19 3 -11 1
-22 -5 -26 -6 -3 -7 -11 -3 -18 14 -23 9 -59 -11 -66 -17 -7 -17 -8 -3 -14 10
-4 14 -13 11 -22 -3 -8 -1 -15 5 -15 6 0 11 -5 11 -11 0 -5 -4 -7 -10 -4 -5 3
-10 2 -10 -4 0 -5 5 -13 10 -16 6 -3 10 -21 10 -40 0 -18 7 -40 15 -49 19 -19
19 -62 1 -69 -19 -8 -13 -41 8 -45 12 -3 16 2 14 14 -2 9 3 19 11 22 8 3 11 0
7 -7 -5 -7 1 -11 13 -11 26 0 28 -18 3 -27 -9 -4 -21 -12 -25 -20 -6 -10 -13
-10 -27 -3 -10 5 -21 10 -24 10 -11 0 -6 -36 6 -48 9 -9 9 -12 0 -12 -21 0
-13 -18 10 -22 26 -4 37 -28 13 -28 -13 0 -16 -6 -12 -22 10 -35 -3 -68 -25
-68 -18 0 -19 -4 -14 -35 5 -23 3 -35 -4 -35 -6 0 1 -11 16 -25 20 -19 23 -25
10 -25 -9 0 -16 -7 -16 -16 0 -11 6 -15 20 -11 13 3 20 0 20 -9 0 -8 -4 -14
-10 -14 -5 0 -10 -11 -10 -25 0 -14 5 -25 11 -25 6 0 17 -7 25 -15 17 -16 17
-16 -46 -19 -34 -1 -42 -50 -9 -59 16 -4 20 -11 16 -26 -6 -25 13 -42 41 -36
25 5 31 -20 6 -29 -8 -3 -12 -2 -9 4 4 6 -5 10 -20 10 -22 0 -25 -3 -20 -20 4
-14 2 -20 -8 -20 -33 0 -37 -67 -4 -80 l22 -9 -22 0 -23 -1 0 -1200 0 -1200
51 5 c62 7 71 2 58 -32 -11 -30 -2 -46 12 -20 6 9 19 17 29 17 34 0 21 -44
-15 -53 -19 -4 21 0 76 8 19 3 32 -3 48 -21 19 -22 28 -25 63 -20 22 3 58 3
79 0 34 -6 37 -9 28 -25 -5 -11 -19 -19 -31 -19 -12 0 -29 -7 -39 -16 -10 -9
-30 -14 -45 -12 l-28 3 27 28 28 27 -54 -6 c-42 -5 -60 -3 -81 11 -26 18 -57
17 -169 -1 l-37 -6 1 -1557 c0 -856 4 -1547 9 -1536 14 36 128 145 151 145 14
0 -70 -108 -119 -152 l-41 -37 -1 -212 c0 -185 1 -211 15 -205 8 3 15 1 15 -3
0 -5 -7 -11 -15 -15 -8 -3 -15 -17 -15 -31 l0 -25 220 0 c140 0 220 4 220 10
0 6 5 10 11 10 5 0 7 -4 4 -10 -4 -7 88 -10 268 -10 l274 0 13 25 c7 14 17 25
20 25 4 0 13 14 20 30 7 17 16 30 21 30 5 0 9 4 9 10 0 5 20 30 43 56 24 26
52 63 63 83 10 20 52 81 93 136 40 55 76 106 79 115 3 8 19 25 34 38 15 13 28
27 28 32 0 14 319 340 342 349 9 3 43 31 75 61 66 62 162 130 185 130 19 0 92
39 154 82 27 19 76 43 109 52 33 10 87 28 120 41 71 27 163 52 222 60 44 5
113 33 124 49 13 17 88 18 105 2 10 -11 24 -14 41 -10 24 6 25 5 19 -20 -7
-30 9 -36 19 -6 3 11 11 20 17 20 5 0 8 -7 4 -15 -3 -8 -2 -15 3 -15 5 0 11 9
14 20 7 26 50 43 109 43 26 0 45 4 42 8 -3 5 1 9 9 9 8 0 17 -6 20 -14 4 -11
14 -12 43 -6 21 5 42 7 46 4 4 -3 8 -1 8 4 0 11 32 11 40 0 6 -8 183 16 201
28 7 4 27 7 45 6 18 -1 36 3 39 8 8 13 105 13 105 0 0 -6 8 -5 20 2 16 10 24
10 41 0 15 -10 24 -11 32 -3 14 14 90 15 82 1 -8 -13 -2 -13 28 3 19 10 40 11
79 5 29 -5 64 -11 78 -12 28 -4 53 -12 88 -29 16 -8 25 -8 34 1 17 17 31 15
25 -3 -9 -21 9 -28 27 -9 17 16 44 11 125 -23 18 -7 42 -11 52 -8 11 4 19 2
19 -4 0 -6 6 -11 14 -11 8 0 16 -7 20 -15 3 -8 17 -20 32 -25 21 -8 29 -7 39
6 11 16 14 16 46 -2 19 -10 41 -25 50 -32 9 -7 20 -12 25 -10 16 4 54 -22 54
-37 0 -11 8 -13 30 -8 27 5 30 3 30 -21 0 -21 5 -26 25 -26 14 0 25 -5 25 -10
0 -6 8 -14 18 -17 9 -4 22 -13 28 -22 10 -12 14 -10 27 15 l15 29 7 -50 c9
-74 15 -98 22 -91 4 3 18 -1 32 -11 23 -14 26 -15 35 -1 9 15 12 14 35 0 34
-22 42 -33 37 -54 -5 -20 22 -61 35 -53 5 4 9 1 9 -5 0 -7 -8 -9 -20 -5 -14 5
-20 2 -20 -9 0 -9 5 -16 10 -16 6 0 10 -7 10 -16 0 -9 9 -18 20 -21 11 -3 20
-9 20 -14 0 -5 5 -9 11 -9 8 0 8 4 1 13 -7 8 -7 19 2 35 l12 23 12 -23 c7 -13
26 -31 43 -40 29 -17 29 -19 25 -79 -2 -33 -9 -66 -15 -72 -30 -30 2 -119 39
-110 16 4 20 0 20 -20 0 -14 4 -28 9 -31 4 -3 11 -28 15 -55 5 -37 10 -48 23
-47 10 0 19 -8 21 -19 3 -11 13 -28 25 -37 15 -14 18 -25 14 -53 -5 -33 6 -49
16 -22 4 8 8 8 14 2 11 -14 44 -15 42 -1 -4 22 14 96 22 96 5 0 9 -6 9 -14 0
-8 7 -16 15 -19 11 -5 14 -24 10 -99 -2 -51 -6 -100 -9 -108 -3 -10 6 -22 27
-35 26 -17 32 -27 32 -55 0 -20 -8 -44 -18 -55 -18 -19 -18 -20 3 -23 26 -4
30 -1 34 29 1 13 8 37 14 52 7 16 12 34 12 42 0 19 25 26 45 11 11 -8 16 -23
13 -46 -3 -33 -5 -35 -35 -32 -36 4 -40 -3 -19 -31 8 -10 20 -15 30 -11 9 3
16 1 16 -5 0 -8 82 -11 280 -11 249 0 323 6 261 23 -14 3 -18 11 -14 26 4 15
1 21 -10 21 -16 0 -77 70 -77 88 0 5 -9 12 -19 15 -24 6 -40 99 -21 122 7 9 9
26 5 46 -6 27 -5 31 10 26 9 -4 19 -7 21 -7 2 0 4 -7 4 -15 0 -19 26 -20 33
-1 3 7 -1 26 -9 41 -8 15 -14 34 -14 41 0 10 -13 14 -40 14 -31 0 -38 3 -34
15 7 18 0 19 -29 3 -33 -18 -69 -17 -96 4 -13 10 -30 18 -37 18 -15 0 -54 52
-54 73 0 9 -10 17 -22 19 -19 2 -22 8 -20 34 2 24 -2 33 -22 43 -17 10 -27 25
-31 52 -4 22 -11 39 -16 39 -23 0 -69 45 -69 67 0 13 -7 26 -15 29 -20 8 -19
44 2 59 10 8 14 19 10 30 -7 17 -25 17 -70 -1 -8 -3 -21 1 -29 9 -8 8 -28 22
-46 31 -26 14 -32 22 -32 50 0 18 9 45 20 59 12 15 22 46 24 77 5 49 16 83 16
46 0 -31 43 -15 53 19 5 17 18 50 29 74 10 24 17 46 14 48 -6 6 -71 -44 -100
-76 -11 -12 -25 -21 -32 -21 -18 0 -35 -35 -28 -54 4 -11 0 -16 -14 -16 -15 0
-18 -5 -14 -25 3 -18 0 -25 -12 -25 -9 0 -16 -4 -16 -10 0 -5 -12 2 -26 15
-24 22 -26 30 -22 79 4 54 4 54 -14 31 -10 -13 -18 -28 -18 -34 0 -16 -27 -13
-34 4 -3 8 -17 15 -30 15 -32 0 -40 26 -32 111 3 43 12 71 26 89 11 14 28 38
38 54 9 16 25 37 35 48 9 10 17 26 17 35 -1 17 -2 17 -15 -1 -40 -53 -79 -87
-106 -93 -19 -4 -34 -14 -39 -28 -5 -13 -14 -26 -19 -30 -6 -3 -11 -19 -11
-36 0 -34 -10 -37 -35 -9 -12 13 -18 34 -17 60 2 47 -15 53 -31 10 -6 -17 -17
-30 -25 -30 -7 0 -11 4 -7 9 3 6 -12 11 -32 13 -25 2 -37 8 -35 16 3 17 -17
37 -46 46 -12 4 -22 12 -22 17 0 15 40 10 46 -6 10 -26 43 -18 49 13 3 15 10
41 15 57 5 17 7 46 4 66 -5 28 0 45 21 78 14 23 25 49 23 58 -2 9 -13 -2 -28
-28 -30 -50 -87 -109 -106 -109 -9 0 -14 -12 -14 -34 0 -21 -6 -36 -16 -40 -8
-3 -12 -2 -9 4 3 6 0 10 -9 10 -8 0 -16 -5 -18 -12 -8 -23 -30 4 -24 28 8 31
-11 31 -25 1 -9 -19 -17 -23 -52 -21 -38 2 -42 4 -48 34 -4 17 -3 47 2 66 5
19 13 50 18 68 7 29 5 38 -10 52 -12 10 -16 21 -10 28 12 15 20 66 10 66 -4 0
-11 -15 -14 -32 -10 -44 -75 -159 -86 -152 -5 3 -9 -1 -9 -9 0 -8 -8 -25 -19
-38 l-18 -23 5 32 c4 27 1 32 -16 32 -13 0 -22 -9 -26 -25 -4 -16 -16 -27 -34
-31 -15 -4 -32 -11 -39 -16 -14 -11 -36 -1 -28 12 3 5 1 11 -5 15 -5 3 -10 19
-10 36 0 16 -5 29 -12 29 -10 0 -9 3 1 9 7 5 15 27 16 49 3 34 0 41 -21 51
-21 9 -23 13 -12 30 7 11 9 23 5 27 -10 10 -10 9 -39 -81 -21 -64 -30 -79 -44
-77 -15 3 -16 1 -6 -11 17 -20 4 -28 -22 -14 -11 7 -22 13 -24 14 -2 1 2 11 8
23 18 34 6 34 -31 1 -35 -32 -50 -33 -42 -1 4 13 0 20 -10 20 -8 0 -17 -9 -20
-20 -7 -27 -27 -25 -27 3 1 52 -6 82 -17 83 -7 1 -18 2 -24 3 -7 1 -9 12 -6
29 3 16 2 46 -3 67 -6 25 -5 44 1 52 6 7 7 18 3 24 -5 9 -1 10 15 6 15 -4 29
1 42 14 30 30 41 13 18 -26 -12 -20 -16 -35 -10 -35 6 0 11 -11 11 -25 0 -14
8 -29 20 -35 18 -10 19 -8 14 19 -7 36 28 121 50 121 9 0 15 6 14 12 -5 20 44
22 58 3 7 -10 19 -15 27 -12 8 3 20 0 26 -6 8 -8 11 -8 11 1 0 8 9 10 25 6 15
-4 25 -2 25 5 0 6 7 11 15 11 8 0 15 -4 15 -10 0 -5 -5 -10 -11 -10 -5 0 -7
-5 -4 -10 10 -16 22 -12 28 10 5 21 27 28 27 9 0 -14 52 -2 61 13 4 6 12 7 18
4 6 -4 9 -12 6 -17 -9 -14 8 -11 33 7 24 16 109 23 130 10 7 -4 12 -14 12 -22
0 -20 27 -18 39 3 8 15 14 16 41 6 19 -7 41 -8 60 -3 26 7 30 6 30 -10 0 -24
18 -36 33 -21 16 16 47 14 47 -3 0 -12 -43 -32 -62 -28 -3 1 -9 -5 -12 -13 -3
-9 1 -15 9 -15 8 0 15 5 15 10 0 6 11 10 25 10 14 0 25 4 25 9 0 14 38 20 44
7 3 -8 7 -8 13 0 7 10 40 11 86 5 5 0 -5 -15 -22 -31 -34 -35 -33 -65 2 -49
12 6 30 24 40 42 10 17 21 27 25 21 14 -18 89 -48 115 -45 14 2 17 -2 11 -23
-5 -20 -2 -26 10 -26 9 0 16 5 16 10 0 21 19 9 28 -19 11 -30 50 -51 61 -32 4
5 17 8 29 4 12 -3 19 -9 16 -14 -3 -5 7 -9 23 -10 35 -1 65 -12 64 -24 -1 -12
46 -26 63 -19 7 3 20 -4 29 -14 12 -13 26 -18 44 -14 26 5 26 5 10 -19 -19
-27 -22 -59 -6 -59 6 0 13 9 16 19 3 13 16 20 40 23 19 2 36 1 39 -3 2 -4 21
-13 42 -20 39 -13 64 -37 55 -54 -2 -5 2 -2 10 8 12 14 20 16 34 8 10 -5 36
-17 58 -26 91 -39 125 -59 113 -66 -22 -14 -2 -20 74 -20 70 0 75 -2 93 -30
11 -16 27 -31 36 -34 9 -3 19 -15 22 -25 5 -20 27 -28 27 -10 0 19 29 10 42
-12 7 -13 11 -26 10 -31 -1 -4 7 -7 18 -7 11 0 20 -6 20 -14 0 -9 12 -16 28
-18 21 -2 28 -9 30 -31 4 -32 45 -77 70 -77 15 0 15 2 2 10 -12 8 -9 10 13 10
15 0 27 6 28 13 0 10 20 -30 20 -43 1 -3 5 -11 11 -18 8 -9 7 -19 -2 -36 -9
-18 -9 -29 -1 -42 6 -11 11 -14 12 -6 1 6 2 18 3 25 2 16 52 12 82 -7 13 -9
29 -34 35 -56 10 -33 15 -38 26 -28 12 9 19 6 38 -18 14 -16 24 -23 25 -16 0
18 23 15 42 -7 31 -36 40 -61 28 -75 -8 -10 -7 -15 4 -19 9 -4 18 -2 21 3 9
15 25 12 25 -4 0 -8 8 -21 18 -28 11 -7 24 -23 30 -35 13 -23 72 -58 72 -42 0
5 -4 9 -10 9 -5 0 -10 15 -10 33 0 17 -9 43 -19 56 -10 13 -16 32 -14 42 4 12
0 19 -9 19 -12 0 -15 17 -16 84 0 92 -18 166 -39 166 -18 0 -16 40 4 62 13 14
14 21 5 30 -7 7 -12 24 -12 40 0 17 -7 31 -20 38 -20 11 -29 60 -10 60 6 0 10
7 10 15 0 8 7 15 17 15 15 0 15 2 0 18 -22 24 -21 142 1 158 13 9 14 15 5 26
-13 15 -11 43 6 98 14 43 14 40 -4 40 -8 0 -15 7 -15 15 0 7 -6 18 -14 22 -17
10 -30 93 -14 93 5 0 1 16 -11 35 -11 19 -23 51 -27 72 -4 21 -11 44 -17 51
-12 15 1 16 40 2 25 -10 24 -7 -14 30 -24 22 -43 44 -43 50 0 5 -8 10 -17 11
-11 0 -13 3 -5 6 17 7 15 23 -3 23 -20 0 -50 31 -57 58 -5 17 -1 23 18 28 13
3 24 8 24 10 0 3 -11 22 -25 44 -24 38 -24 40 -5 40 12 0 17 5 14 13 -5 15 50
17 96 3 22 -6 23 -5 9 6 -39 32 -51 88 -19 88 14 0 18 5 13 16 -5 14 -1 15 28
10 30 -6 32 -5 17 7 -10 8 -18 19 -18 26 0 14 27 15 35 1 3 -5 13 -10 22 -10
12 0 13 3 4 13 -12 15 3 37 25 37 19 0 -7 47 -33 61 -24 13 -31 29 -13 29 6 0
10 8 8 17 -3 19 19 23 59 9 19 -6 22 -4 16 9 -5 15 -1 16 25 10 25 -5 32 -3
32 8 0 9 3 22 6 31 4 10 -1 18 -12 23 -22 8 -53 43 -54 60 0 6 6 14 13 16 6 3
3 6 -8 6 -27 1 -45 20 -45 46 0 12 -6 27 -12 33 -10 10 -10 15 2 23 11 8 12
12 3 16 -27 10 -11 24 25 23 54 -3 62 -1 60 11 -2 7 12 16 30 21 17 5 32 15
32 23 0 9 10 15 26 15 19 0 25 4 20 15 -4 10 1 15 14 15 15 0 20 7 20 26 0 18
6 28 20 31 15 4 19 11 15 24 -6 16 -2 18 26 12 29 -5 31 -4 24 16 -5 17 -2 21
14 21 11 0 26 7 35 15 8 8 26 15 41 15 14 0 24 4 21 9 -6 9 26 21 57 21 10 0
26 7 34 16 9 9 26 14 40 11 19 -3 21 -2 12 9 -9 11 -8 14 1 14 7 0 10 7 6 15
-3 9 0 15 9 15 9 0 15 10 15 25 0 16 6 25 16 25 13 0 14 3 4 15 -10 11 -9 18
4 30 12 13 13 21 6 36 -10 17 -7 19 21 19 27 0 30 2 19 15 -13 16 -9 18 30 15
24 -2 24 -2 7 18 -16 18 -17 20 -1 26 13 5 14 9 4 21 -9 11 -9 15 -1 15 6 0
16 10 22 23 6 12 23 32 40 42 16 11 29 25 29 31 0 7 7 15 16 18 13 5 14 9 4
21 -10 12 -9 15 7 15 27 0 35 10 22 27 -9 10 -7 13 10 13 11 0 28 11 37 25 9
14 23 25 30 25 8 0 17 7 20 15 4 8 15 15 25 15 12 0 16 5 13 15 -4 8 -2 15 4
15 20 0 101 90 95 105 -3 9 1 15 11 15 9 0 16 8 16 18 0 10 11 25 25 32 14 8
24 19 21 26 -2 6 7 17 20 23 14 6 23 15 20 20 -3 4 3 16 14 26 11 10 20 25 20
34 0 9 13 27 30 41 16 13 32 38 36 54 7 34 31 75 54 93 10 9 11 12 3 13 -22 0
-14 20 8 20 11 0 17 5 14 10 -3 6 1 13 9 16 11 4 14 14 10 30 -4 16 -2 24 6
24 10 0 10 4 0 16 -11 13 -10 16 8 20 12 4 18 12 16 19 -3 7 -1 16 5 20 6 3
11 15 11 26 0 12 10 23 25 29 20 8 25 16 25 45 0 25 8 44 24 60 24 24 56 80
56 98 0 5 13 31 29 57 24 39 30 61 32 119 2 49 7 71 16 71 7 0 15 11 19 25 3
14 15 32 26 39 11 8 17 19 14 24 -3 5 1 15 9 22 8 7 15 18 15 24 0 27 27 65
49 71 13 3 21 9 18 12 -9 8 20 61 40 72 16 9 16 13 5 31 -10 16 -10 25 -2 35
8 10 8 14 -1 17 -9 3 -6 11 9 26 26 26 27 38 7 58 -10 10 -13 24 -8 42 6 24 8
44 12 90 1 6 9 12 19 13 11 0 7 5 -12 13 -22 10 -25 14 -12 19 9 4 13 13 10
22 -4 8 -1 21 5 29 6 7 8 16 4 19 -3 4 1 7 10 7 17 0 34 60 23 79 -3 5 0 15 7
23 7 7 14 29 15 48 2 19 7 37 13 41 14 9 36 52 44 88 4 17 14 35 22 40 15 8
61 130 68 181 4 25 -12 85 -28 107 -4 6 -10 24 -12 40 -2 15 -8 57 -13 93 -5
35 -6 78 -1 95 4 16 10 50 13 75 3 24 10 46 15 48 7 2 9 18 5 41 -6 35 -3 40
32 69 28 23 49 32 76 32 30 0 36 3 31 16 -3 8 -12 13 -19 10 -7 -3 -16 3 -19
13 -3 11 -15 21 -26 24 -27 7 -15 27 16 27 18 0 26 7 31 25 4 16 13 25 25 25
24 0 25 17 2 23 -17 4 -17 5 0 6 11 1 17 9 17 26 0 20 5 25 25 25 22 0 24 3
15 19 -7 14 -6 21 3 24 8 4 8 8 2 14 -16 13 -45 73 -45 94 0 17 15 24 46 20 7
-1 15 11 18 26 4 16 9 36 12 45 3 11 -2 17 -18 20 -19 2 -24 12 -32 58 -5 30
-15 58 -22 62 -16 10 -15 71 1 117 l12 36 19 -40 18 -40 4 30 c2 16 11 34 19
41 10 7 14 18 10 28 -4 10 -4 22 -1 28 8 13 64 -98 64 -126 0 -12 5 -27 12
-34 9 -9 9 -12 -3 -12 -10 -1 -9 -3 4 -11 9 -6 15 -14 12 -19 -3 -5 0 -12 6
-16 8 -5 8 -9 -1 -14 -7 -4 -10 -16 -6 -25 5 -14 8 -15 21 -2 8 8 17 30 20 48
3 18 8 35 11 38 2 3 32 7 65 9 59 4 60 4 72 -27 9 -24 17 -31 38 -31 15 0 30
-6 33 -12 5 -10 7 -10 12 0 8 18 27 15 41 -7 12 -19 44 -19 69 1 6 4 18 6 27
2 8 -3 18 -1 22 5 3 6 27 11 52 11 39 0 44 -2 33 -15 -9 -11 -17 -12 -32 -4
-16 8 -23 7 -34 -8 -17 -23 -18 -33 -1 -33 7 0 30 -9 52 -20 44 -23 48 -24 41
-11 -4 5 10 5 32 0 118 -29 192 -31 192 -5 0 21 -18 39 -41 40 -18 1 -24 7
-24 26 0 20 -6 26 -30 28 -16 2 -34 7 -39 12 -4 5 -22 0 -40 -11 -35 -21 -46
-24 -46 -9 0 6 9 10 19 10 10 0 21 6 24 13 15 39 147 66 147 31 0 -17 14 -18
41 -4 11 6 19 21 19 37 0 22 3 25 27 20 43 -8 87 23 79 55 -2 10 1 16 8 15 6
-1 9 5 7 13 -2 8 -5 31 -6 50 -1 19 -5 43 -9 52 -14 39 -15 48 -5 54 5 3 7 14
4 25 -4 12 -2 19 7 19 8 0 6 5 -5 11 -9 6 -15 14 -12 19 3 5 1 11 -5 15 -5 3
-10 17 -10 30 0 13 -5 27 -11 31 -8 5 -8 9 1 14 10 6 7 16 -9 39 -12 17 -18
31 -12 31 16 0 13 56 -3 70 -11 8 -12 18 -5 36 13 35 11 47 -6 41 -17 -7 -30
9 -15 18 19 12 10 62 -15 89 l-26 28 -35 -21 c-19 -12 -41 -21 -49 -21 -8 0
-19 -8 -24 -17 -6 -10 -11 -14 -11 -9 0 5 -7 3 -15 -4 -12 -10 -13 -16 -4 -26
9 -11 8 -14 -5 -14 -19 0 -20 -9 -6 -45 5 -14 15 -23 20 -20 6 4 22 -4 35 -17
24 -23 34 -45 15 -33 -5 3 -21 -2 -36 -11 -20 -14 -27 -15 -34 -5 -4 8 -16 11
-29 6 -16 -5 -21 -2 -21 10 0 12 -5 15 -17 11 -9 -4 -20 -1 -24 5 -4 7 -14 9
-24 6 -9 -4 -13 -12 -9 -18 4 -8 3 -9 -5 -5 -6 4 -9 11 -6 16 3 4 -1 8 -8 7
-35 -1 -67 4 -65 11 5 20 -27 62 -46 61 -17 -1 -18 -2 -3 -6 26 -7 20 -20 -15
-33 -55 -20 -98 -28 -98 -19 0 5 -9 4 -20 -3 -14 -9 -16 -15 -7 -21 7 -5 3 -6
-10 -2 -14 4 -23 2 -23 -5 0 -20 -30 -42 -49 -37 -17 4 -55 -26 -45 -36 3 -2
-11 -12 -31 -21 -19 -9 -35 -20 -35 -24 0 -17 55 -31 96 -25 37 5 44 3 44 -11
0 -12 -10 -16 -37 -17 -21 -1 -30 -3 -20 -6 11 -3 16 -10 13 -20 -3 -8 -6 -19
-6 -24 0 -14 -23 -11 -60 7 -28 14 -30 18 -16 26 25 14 8 30 -25 23 -21 -5
-31 -2 -35 9 -3 8 -14 18 -23 21 -27 8 -20 49 10 54 19 3 21 5 7 10 -11 4 -14
11 -9 20 6 10 13 10 28 3 14 -8 30 -7 56 2 31 11 34 13 19 24 -13 9 -14 14 -4
18 20 9 14 23 -10 22 -60 -4 -76 1 -71 22 4 15 1 20 -13 19 -11 -1 -32 -1 -49
0 -29 2 -29 2 -11 16 15 12 22 12 27 3 5 -7 11 -9 15 -5 12 11 -28 36 -58 37
-16 0 -28 5 -28 11 0 8 14 10 45 6 27 -4 45 -3 45 3 0 6 4 10 10 10 5 0 7 -7
4 -15 -9 -21 13 -19 47 6 33 23 38 44 10 36 -13 -3 -18 0 -15 8 3 7 1 16 -5
20 -6 3 -11 -1 -11 -9 0 -9 -8 -16 -19 -16 -11 0 -26 -6 -33 -12 -18 -18 -74
-17 -70 0 2 10 -4 11 -19 7 -18 -6 -20 -3 -19 22 3 46 1 63 -10 63 -5 0 -10
-13 -10 -29 0 -17 -4 -33 -10 -36 -5 -3 -10 3 -10 15 0 17 -5 20 -35 18 -19
-1 -40 3 -47 10 -9 9 -6 12 15 12 15 0 27 5 27 11 0 6 -7 8 -17 5 -9 -4 -20
-1 -24 6 -6 9 -14 5 -31 -15 -19 -22 -32 -27 -69 -27 -25 0 -50 -5 -57 -12 -9
-9 -12 -9 -12 0 0 6 -16 14 -35 18 -31 6 -50 24 -25 24 6 0 10 4 10 10 0 5
-10 9 -22 7 -16 -1 -23 3 -23 15 0 10 -5 17 -10 15 -6 -1 -9 -4 -8 -8 1 -3 -8
-11 -20 -19 -20 -12 -21 -11 -9 2 13 16 7 47 -12 61 -6 5 3 5 19 1 17 -4 50
-8 74 -8 26 -1 46 -6 48 -14 3 -8 -2 -10 -14 -6 -16 6 -15 5 2 -8 12 -10 32
-14 52 -11 35 6 36 23 2 23 -11 0 -17 5 -14 10 3 6 -3 10 -14 10 -22 0 -28 14
-11 25 19 12 -1 25 -21 15 -22 -12 -39 -6 -39 16 0 8 -7 14 -15 14 -8 0 -15
-7 -15 -16 0 -21 -24 -12 -29 11 -2 13 1 16 13 12 20 -8 31 10 16 28 -9 11 -8
21 8 47 11 18 17 39 15 46 -3 8 7 12 31 12 27 0 34 3 30 15 -4 8 -12 15 -20
15 -18 0 -18 8 1 26 8 9 15 26 15 40 0 19 -5 23 -22 21 -14 -1 -22 3 -20 11 1
7 -5 15 -13 18 -8 4 -15 12 -15 18 0 7 -6 21 -14 31 -12 16 -16 17 -30 6 -13
-11 -19 -11 -31 -1 -17 14 -20 46 -5 55 6 4 4 12 -5 22 -13 12 -21 13 -38 4
-22 -11 -22 -11 2 -8 13 1 26 -3 28 -9 6 -17 -56 -23 -72 -7 -17 16 -32 17
-38 1 -3 -10 -10 -8 -23 6 -19 18 -18 18 3 11 20 -5 23 -3 23 21 0 21 -3 24
-14 15 -8 -6 -18 -11 -22 -10 -28 5 -54 -3 -54 -16 0 -9 -6 -12 -15 -9 -11 5
-13 2 -9 -9 3 -9 12 -13 20 -10 8 3 14 0 14 -7 0 -7 -8 -10 -20 -7 -12 3 -24
-1 -30 -11 -7 -13 -9 -9 -6 16 2 18 0 35 -5 38 -5 3 -9 13 -9 24 0 10 -7 20
-15 24 -9 3 -15 0 -15 -10 0 -12 -5 -10 -20 7 -11 14 -19 18 -20 11 0 -9 -10
-12 -27 -10 -24 3 -29 9 -37 46 -10 48 -17 51 -48 20 -13 -13 -26 -22 -30 -20
-5 1 -8 -5 -8 -13 0 -18 -16 -20 -23 -2 -2 6 9 23 24 37 17 14 29 34 29 48 0
21 -2 22 -15 12 -12 -10 -15 -10 -15 0 0 7 6 18 14 24 20 15 10 67 -13 64 -12
-2 -16 6 -17 37 -1 22 -2 48 -3 57 -1 9 -10 20 -22 23 -14 5 -19 14 -17 29 1
12 -5 34 -15 49 -9 14 -17 31 -17 37 0 5 -4 10 -10 10 -5 0 -10 7 -10 15 0 8
5 15 11 15 7 0 5 9 -5 24 -11 18 -13 27 -4 32 7 5 5 11 -7 20 -13 10 -22 11
-31 3 -20 -16 -34 -1 -34 37 0 19 -4 34 -10 34 -5 0 -10 -7 -10 -15 0 -8 -9
-15 -20 -15 -13 0 -20 7 -20 20 0 11 -4 20 -9 20 -5 0 -11 -9 -14 -20 -7 -27
-27 -26 -27 1 0 21 -1 20 -26 -6 -27 -29 -46 -26 -27 4 6 10 14 36 18 57 5 31
4 35 -5 22 -15 -24 -40 -23 -40 1 0 11 4 21 9 23 5 2 4 14 -1 28 -9 24 -10 24
-23 6 -8 -10 -12 -22 -10 -26 3 -4 -4 -10 -15 -13 -11 -3 -20 -13 -20 -22 0
-9 -13 -30 -30 -48 -16 -18 -30 -26 -30 -19 0 16 -25 43 -33 36 -3 -3 -3 -12
-1 -19 7 -17 -33 -58 -47 -49 -6 4 -8 20 -5 39 7 35 0 65 -16 65 -6 0 -8 -7
-4 -15 3 -9 -2 -20 -13 -27 -11 -6 -17 -18 -14 -25 3 -7 0 -13 -7 -13 -7 0 -9
-8 -5 -20 3 -11 2 -20 -2 -20 -5 0 -15 -16 -22 -35 -14 -41 -36 -48 -27 -9 8
31 47 117 56 124 4 3 10 17 14 33 5 20 3 27 -9 27 -8 0 -15 -7 -15 -15 0 -9
-10 -15 -26 -15 -20 0 -24 -4 -19 -19 7 -22 -10 -38 -45 -43 -14 -1 -25 -7
-26 -13 0 -5 -5 -20 -10 -31 -7 -16 -14 -19 -29 -13 -11 4 -14 8 -7 8 6 1 12
10 12 21 0 23 -22 23 -31 0 -6 -12 -8 -12 -15 4 -5 13 -3 21 4 24 7 2 10 7 7
12 -3 4 2 10 10 14 8 3 14 2 14 -2 -4 -27 4 -21 17 13 25 65 27 75 16 75 -6 0
-13 -13 -17 -30 -4 -16 -11 -30 -16 -30 -13 0 -30 47 -23 65 4 8 1 15 -5 15
-6 0 -11 -5 -11 -12 0 -14 -40 -98 -47 -98 -2 0 -1 9 2 20 5 16 2 20 -15 20
-17 0 -19 4 -14 28 4 15 12 32 20 38 22 18 -3 35 -32 22 -13 -6 -24 -14 -24
-18 0 -4 -11 -5 -25 -2 -14 2 -25 6 -25 9 0 10 24 48 34 55 8 5 8 8 0 8 -6 0
-20 -11 -32 -25 -12 -14 -26 -25 -32 -25 -5 0 -10 -6 -10 -12 0 -7 -14 -14
-31 -15 -30 -2 -31 -2 -24 36 5 29 2 42 -10 55 -19 19 -27 66 -14 82 11 14 1
46 -12 38 -5 -3 -7 -9 -4 -14 3 -4 -2 -11 -11 -14 -8 -3 -12 -10 -9 -16 3 -5
-3 -10 -13 -10 -11 0 -20 6 -19 13 1 41 -3 47 -39 47 -19 0 -33 -4 -29 -9 10
-17 -15 -23 -30 -7 -8 8 -11 16 -7 18 4 2 2 19 -4 38 -10 28 -14 31 -19 18 -4
-10 -16 -18 -26 -18 -19 0 -25 -11 -12 -23 12 -13 10 -62 -5 -82 -13 -18 -13
-16 -10 22 2 24 -1 45 -7 47 -6 2 -5 12 3 26 10 16 11 25 3 33 -13 13 -11 14
-39 -43 -21 -45 -24 -100 -6 -157 4 -15 2 -23 -6 -23 -8 0 -10 -9 -6 -25 4
-14 2 -25 -3 -25 -13 0 -21 27 -15 45 4 9 0 15 -7 15 -12 0 -12 2 -1 9 11 7 9
19 -13 65 -27 57 -41 68 -51 41 -4 -8 -11 -15 -16 -15 -5 0 -19 -10 -29 -22
l-20 -23 6 23 c4 13 2 22 -4 22 -6 0 -11 5 -11 10 0 6 5 10 11 10 6 0 17 7 25
15 9 8 11 15 5 15 -19 0 -12 20 10 28 l20 8 -20 18 c-11 10 -18 23 -15 27 3 5
2 14 -2 21 -11 17 -33 -19 -26 -44 3 -15 1 -19 -9 -16 -7 2 -18 21 -22 42 -13
51 -39 45 -51 -12 -6 -23 -12 -42 -15 -42 -18 1 -37 29 -38 55 -1 62 -2 65
-28 65 -25 0 -33 14 -15 25 6 3 10 11 10 17 0 6 -8 4 -18 -5 -10 -10 -24 -17
-30 -17 -6 0 -9 -7 -5 -16 4 -10 0 -22 -10 -29 -9 -6 -17 -30 -19 -55 -3 -49
-14 -58 -43 -35 -19 15 -19 15 8 9 27 -6 39 10 15 19 -10 4 -10 7 0 18 6 7 11
29 11 48 -1 35 -2 35 -8 7 -7 -34 -51 -70 -51 -42 0 20 -3 20 -50 -4 -40 -21
-67 -27 -40 -10 12 8 11 10 -7 10 -25 0 -26 4 -13 35 l9 20 1 -20 c1 -19 1
-19 11 -2 13 22 2 57 -17 57 -8 0 -17 7 -20 15 -8 21 -27 7 -21 -15 6 -24 -33
-62 -52 -51 -7 5 -10 14 -7 20 4 6 0 11 -9 11 -9 0 -13 5 -10 10 3 6 0 10 -8
10 -10 0 -13 -7 -10 -20 3 -11 1 -20 -5 -20 -11 0 -12 -41 -2 -50 4 -3 10 -19
13 -37 6 -31 5 -32 -23 -30 -23 2 -31 8 -35 28 -7 31 -4 51 10 61 6 4 -3 8
-20 9 -17 1 -22 3 -12 6 18 5 24 23 7 23 -5 0 -10 7 -10 15 0 18 -30 20 -31 3
-1 -7 -2 -20 -3 -28 0 -9 -13 -16 -33 -18 -18 -2 -33 -7 -33 -13 0 -5 -5 -9
-11 -9 -8 0 -8 4 -2 13 11 14 -5 51 -25 54 -14 3 -16 -9 -3 -23 11 -11 2 -84
-10 -84 -5 0 -9 18 -9 40 0 34 -3 39 -20 37 -25 -4 -38 -17 -17 -17 10 0 17
-4 17 -9 0 -14 -31 -22 -45 -11 -16 13 -25 2 -25 -30 0 -34 -9 -43 -27 -28 -8
7 -23 12 -34 13 -17 2 -18 0 -4 -15 9 -10 15 -23 13 -30 -2 -7 10 -13 30 -15
46 -4 50 -12 19 -37 -20 -16 -24 -25 -16 -39 5 -10 7 -40 5 -66 -5 -62 -5 -62
-18 -33 -10 24 -11 24 -22 -19 -15 -58 -36 -66 -37 -14 -1 21 -2 49 -2 63 -1
14 4 31 12 39 11 12 11 16 -3 26 -12 10 -16 30 -16 94 0 44 -3 81 -8 81 -4 0
-7 -28 -7 -62 0 -48 -6 -77 -27 -121 -16 -33 -26 -63 -23 -67 10 -16 -6 -38
-25 -33 -13 3 -19 17 -23 46 -2 23 -1 45 3 50 8 9 0 67 -9 67 -4 0 -12 -21
-19 -46 -13 -47 -34 -56 -40 -16 -5 35 -44 29 -62 -10 l-14 -33 -9 43 c-6 29
-5 48 3 57 8 10 8 15 0 20 -7 4 -10 23 -7 44 6 50 -6 147 -18 144 -5 -2 -11
-15 -12 -30 -7 -118 -12 -145 -29 -158 -25 -19 -35 -19 -28 0 4 8 11 15 17 15
5 0 2 9 -7 19 -10 10 -13 21 -7 22 13 5 21 108 10 115 -5 3 -9 -4 -9 -15 0
-29 -18 -26 -30 3 -5 13 -13 27 -19 30 -6 4 -8 13 -4 21 3 9 -1 15 -11 15 -20
0 -20 -9 0 -31 16 -18 11 -59 -7 -59 -6 0 -8 4 -4 9 3 5 0 13 -6 17 -6 3 -14
2 -18 -4 -3 -5 -17 -12 -30 -13 -18 -3 -28 -14 -38 -44 -7 -22 -16 -47 -20
-55 -3 -8 -6 -18 -5 -21 0 -3 -5 -27 -13 -52 -8 -28 -10 -49 -4 -52 5 -4 9
-11 9 -16 0 -5 -12 -2 -26 8 -21 13 -25 22 -20 45 5 26 4 27 -14 15 -11 -6
-18 -18 -15 -24 2 -7 -2 -13 -10 -13 -8 0 -15 -9 -15 -20 0 -11 -4 -20 -10
-20 -5 0 -10 -7 -10 -15 0 -8 -7 -15 -15 -15 -8 0 -15 -6 -15 -14 0 -7 -6 -19
-14 -26 -12 -9 -15 -8 -13 9 1 12 5 21 9 21 5 0 7 33 5 74 -5 73 -2 79 30 67
1 -1 -4 -15 -11 -32 -15 -36 -10 -69 10 -69 9 0 14 11 14 28 0 15 9 35 20 45
12 10 17 23 13 33 -4 11 -1 15 13 14 48 -5 57 10 28 46 -11 14 -14 15 -11 3 9
-28 -7 -38 -62 -41 -52 -3 -53 -2 -57 26 -5 48 -21 52 -26 7 -2 -23 1 -41 6
-41 5 0 0 -10 -11 -22 -12 -13 -24 -43 -28 -68 -7 -41 -6 -43 9 -31 24 20 29
8 12 -32 -11 -28 -19 -34 -35 -30 -12 3 -21 9 -21 14 0 5 -4 9 -10 9 -5 0 -10
-9 -10 -19 0 -25 -10 -51 -20 -51 -14 0 -21 69 -10 90 7 14 8 26 1 38 -6 9
-11 13 -11 8 0 -5 -7 -3 -15 4 -8 7 -13 15 -10 19 2 4 6 29 10 55 5 44 4 47
-15 41 -24 -8 -25 3 -6 50 15 35 36 47 36 20 0 -20 26 -8 27 13 0 9 3 34 5 55
6 41 -15 54 -27 16 -10 -29 -32 -8 -33 32 -1 41 -7 45 -36 26 -22 -15 -24 -15
-28 1 -3 10 -4 32 -3 50 2 31 -16 44 -30 22 -4 -6 -11 -8 -16 -5 -5 4 -14 -5
-21 -20 -14 -32 -34 -27 -30 8 4 30 -24 39 -30 10 -3 -16 -4 -16 -20 0 -24 24
-28 22 -29 -20 -1 -37 -1 -38 -11 -10 -5 15 -16 27 -23 27 -18 0 -55 -48 -55
-71 0 -11 -5 -19 -10 -19 -7 0 -9 16 -6 39 4 32 2 39 -10 34 -11 -4 -14 -17
-11 -50 2 -24 0 -46 -4 -49 -13 -8 -49 15 -49 31 0 21 -17 18 -30 -4 -8 -15
-7 -22 4 -28 12 -7 10 -12 -9 -29 -19 -17 -27 -19 -34 -10 -7 8 -7 16 -1 22 6
6 4 19 -4 36 -8 15 -11 30 -8 34 4 4 -2 4 -13 0 -18 -6 -19 -6 -4 9 9 9 14 27
11 44 -4 27 -6 28 -64 30 l-61 2 6 -31 c5 -22 3 -30 -8 -30 -8 0 -12 -8 -10
-20 4 -21 -9 -27 -20 -9 -4 5 1 19 10 29 21 23 12 60 -15 60 -22 0 -34 -24
-35 -70 -2 -55 -15 -100 -31 -100 -17 0 -17 10 -4 44 8 21 6 27 -10 36 -12 7
-17 18 -15 32 3 13 2 31 -1 40 -5 17 -30 18 -338 18 l-333 0 -14 -27 c-7 -16
-15 -31 -17 -35 -2 -3 5 -8 15 -11 15 -4 14 -5 -4 -6 -14 -1 -24 6 -28 19 -3
11 -11 20 -17 20 -5 0 -8 6 -5 14 3 8 -1 17 -9 20 -22 8 -379 7 -388 -1 -10
-11 -36 -12 -36 -2 0 13 -1017 11 -1025 -2 -5 -7 -11 -7 -20 1 -18 15 -105 10
-105 -7 0 -7 -6 -13 -14 -13 -8 0 -21 -3 -30 -6 -12 -4 -16 0 -16 15 0 12 -5
21 -11 21 -6 0 -8 -9 -4 -22z m2595 -7 c0 -11 3 -27 6 -36 5 -13 8 -14 15 -3
7 10 9 10 9 0 0 -7 -9 -20 -19 -29 -11 -9 -17 -22 -14 -29 6 -15 -8 -17 -56
-8 -17 4 -28 11 -25 16 3 5 14 6 23 3 15 -4 18 0 16 20 -2 14 1 25 6 25 5 0 9
11 9 23 0 13 3 27 7 30 12 13 23 7 23 -12z m490 -11 c0 -5 -2 -10 -4 -10 -3 0
-8 5 -11 10 -3 6 -1 10 4 10 6 0 11 -4 11 -10z m-709 -51 c-9 -22 -10 -22 -10
-3 -1 11 2 24 6 27 12 12 14 0 4 -24z m-2341 6 c0 -8 -5 -15 -11 -15 -5 0 -8
4 -5 9 4 5 0 12 -6 14 -8 3 -6 6 5 6 9 1 17 -6 17 -14z m2915 -4 c3 -5 1 -12
-5 -16 -5 -3 -10 1 -10 9 0 18 6 21 15 7z m65 -1 c0 -5 -4 -10 -10 -10 -5 0
-10 5 -10 10 0 6 5 10 10 10 6 0 10 -4 10 -10z m-70 -49 c0 -6 -4 -13 -10 -16
-5 -3 -10 1 -10 9 0 9 5 16 10 16 6 0 10 -4 10 -9z m-3233 -17 c-3 -3 -12 -4
-19 -1 -8 3 -5 6 6 6 11 1 17 -2 13 -5z m3036 -26 c-4 -7 -8 -16 -8 -20 0 -17
-15 -19 -15 -1 0 21 8 33 22 33 5 0 6 -6 1 -12z m-3131 -28 c12 -11 30 -20 39
-20 10 0 21 -5 25 -12 5 -8 0 -9 -17 -3 -13 4 -34 8 -46 9 -11 0 -19 4 -17 8
2 4 0 9 -6 13 -10 6 -14 25 -5 25 3 0 15 -9 27 -20z m78 6 c0 -3 -4 -8 -10
-11 -5 -3 -10 -1 -10 4 0 6 5 11 10 11 6 0 10 -2 10 -4z m1364 -31 c7 -30 7
-30 -9 -7 -9 12 -13 27 -10 33 9 13 11 11 19 -26z m1191 24 c11 -16 1 -19 -13
-3 -7 8 -8 14 -3 14 5 0 13 -5 16 -11z m166 -32 c-13 -13 -15 1 -4 30 7 17 8
17 11 -1 2 -10 -1 -23 -7 -29z m1246 7 c-1 -1 -15 0 -30 3 -19 4 -25 8 -16 13
10 7 53 -9 46 -16z m1241 -10 c1 -1 -4 -7 -13 -14 -13 -11 -14 -10 -9 4 3 9 1
16 -5 16 -6 0 -11 5 -11 11 0 8 6 7 18 -2 9 -7 18 -14 20 -15z m-6246 -6 c-12
-12 -35 -1 -27 12 3 5 13 6 21 3 10 -4 12 -9 6 -15z m5008 -8 c0 -5 -7 -10
-15 -10 -8 0 -15 -7 -15 -15 0 -8 4 -15 8 -15 4 0 9 -14 10 -31 2 -27 0 -30
-12 -20 -21 17 -51 -1 -64 -39 -13 -36 -29 -39 -38 -6 -7 28 2 49 17 40 17
-10 39 17 39 47 0 15 7 35 16 43 17 18 54 22 54 6z m764 -60 c-8 -7 -24 24
-23 45 0 15 4 13 14 -10 7 -16 11 -32 9 -35z m-5824 40 c0 -5 -4 -10 -10 -10
-5 0 -10 5 -10 10 0 6 5 10 10 10 6 0 10 -4 10 -10z m-38 -32 c-6 -6 -15 -8
-19 -4 -4 4 -1 11 7 16 19 12 27 3 12 -12z m63 12 c3 -5 -1 -10 -10 -10 -9 0
-13 5 -10 10 3 6 8 10 10 10 2 0 7 -4 10 -10z m6415 0 c0 -5 -4 -10 -10 -10
-5 0 -10 5 -10 10 0 6 5 10 10 10 6 0 10 -4 10 -10z m-537 -25 c-3 -17 -30
-17 -37 0 -4 13 -1 16 17 13 12 -2 21 -7 20 -13z m-5863 1 c0 -3 -4 -8 -10
-11 -5 -3 -10 -1 -10 4 0 6 5 11 10 11 6 0 10 -2 10 -4z m880 -16 c0 -5 -12
-10 -26 -10 -14 0 -23 4 -19 10 3 6 15 10 26 10 10 0 19 -4 19 -10z m2945 1
c3 -5 1 -12 -5 -16 -5 -3 -10 1 -10 9 0 18 6 21 15 7z m2465 5 c0 -3 -4 -8
-10 -11 -5 -3 -10 -1 -10 4 0 6 5 11 10 11 6 0 10 -2 10 -4z m30 -31 c0 -46
-15 -46 -16 0 0 19 3 35 8 35 4 0 8 -16 8 -35z m-2800 -11 c0 -16 -16 -19 -25
-4 -8 13 4 32 16 25 5 -4 9 -13 9 -21z m266 9 c16 -21 18 -43 4 -43 -5 0 -10
9 -10 20 0 11 -5 19 -11 18 -6 -2 -14 3 -16 10 -7 18 18 15 33 -5z m1811 11
c-3 -3 -12 -4 -19 -1 -8 3 -5 6 6 6 11 1 17 -2 13 -5z m275 -6 c-7 -7 -12 -20
-12 -30 0 -10 -4 -18 -10 -18 -13 0 -13 3 2 35 6 14 16 25 22 25 6 0 5 -5 -2
-12z m-5879 -27 c3 -14 -5 -22 -33 -35 -45 -20 -51 -20 -44 -2 3 8 16 17 30
20 13 4 24 13 24 21 0 21 17 19 23 -4z m867 9 c0 -5 -4 -10 -10 -10 -5 0 -10
5 -10 10 0 6 5 10 10 10 6 0 10 -4 10 -10z m-447 -17 c3 -5 -4 -16 -13 -26
-19 -20 -36 -8 -26 18 6 16 32 20 39 8z m57 3 c0 -3 -4 -8 -10 -11 -5 -3 -10
-1 -10 4 0 6 5 11 10 11 6 0 10 -2 10 -4z m5138 -16 c-13 -21 -28 -27 -28 -10
0 5 8 14 18 19 23 14 24 14 10 -9z m802 -129 l-12 -26 -14 25 c-8 15 -14 19
-14 10 0 -12 -3 -11 -11 3 -13 22 -2 77 18 84 8 3 12 12 9 20 -4 8 -3 20 1 26
4 6 13 -17 21 -52 11 -50 11 -69 2 -90z m440 139 c0 -5 -7 -7 -15 -4 -8 4 -15
8 -15 10 0 2 7 4 15 4 8 0 15 -4 15 -10z m-3336 -25 c-4 -8 -10 -12 -15 -9
-11 6 -2 24 11 24 5 0 7 -7 4 -15z m196 -5 c0 -5 -4 -10 -10 -10 -5 0 -10 5
-10 10 0 6 5 10 10 10 6 0 10 -4 10 -10z m-3837 -20 c-3 -11 -9 -17 -14 -14
-14 8 -10 34 5 34 9 0 12 -7 9 -20z m850 3 c-3 -7 -9 -13 -14 -13 -5 0 -9 6
-9 13 0 8 6 14 14 14 8 0 12 -6 9 -14z m-750 -10 c-7 -2 -21 -2 -30 0 -10 3
-4 5 12 5 17 0 24 -2 18 -5z m707 -3 c0 -5 -4 -10 -10 -10 -5 0 -10 5 -10 10
0 6 5 10 10 10 6 0 10 -4 10 -10z m3020 -2 c0 -4 -7 -8 -15 -8 -8 0 -15 4 -15
8 0 5 7 9 15 9 8 0 15 -4 15 -9z m50 2 c0 -5 -5 -10 -11 -10 -5 0 -7 5 -4 10
3 6 8 10 11 10 2 0 4 -4 4 -10z m2110 -20 c0 -11 -4 -20 -9 -20 -11 0 -22 26
-14 34 12 12 23 5 23 -14z m-2330 -10 c0 -5 -4 -10 -10 -10 -5 0 -10 5 -10 10
0 6 5 10 10 10 6 0 10 -4 10 -10z m129 -32 c-14 -25 -16 -23 -11 13 3 21 7 27
13 18 4 -7 3 -21 -2 -31z m1931 21 c0 -5 -4 -9 -10 -9 -5 0 -10 7 -10 16 0 8
5 12 10 9 6 -3 10 -10 10 -16z m-1903 -11 c-3 -8 -6 -5 -6 6 -1 11 2 17 5 13
3 -3 4 -12 1 -19z m-2845 -20 c-5 -21 -6 -21 -12 -2 -8 21 -3 37 10 29 4 -3 6
-15 2 -27z m4333 22 c3 -5 1 -10 -4 -10 -6 0 -11 5 -11 10 0 6 2 10 4 10 3 0
8 -4 11 -10z m-295 -22 c0 -16 -3 -19 -11 -11 -6 6 -8 16 -5 22 11 17 16 13
16 -11z m-4393 -12 c4 -8 17 -16 28 -19 18 -4 18 -5 -3 -6 -12 0 -25 -8 -28
-16 -7 -18 -34 -20 -34 -2 0 23 12 57 21 57 4 0 12 -6 16 -14z m4903 4 c0 -5
-2 -10 -4 -10 -3 0 -8 5 -11 10 -3 6 -1 10 4 10 6 0 11 -4 11 -10z m122 -32
c-13 -13 -24 5 -16 27 7 16 8 16 17 0 6 -11 6 -20 -1 -27z m78 30 c0 -22 -12
-58 -19 -58 -5 0 -7 56 -2 68 4 8 21 0 21 -10z m230 -28 c0 -16 -4 -30 -10
-30 -11 0 -14 43 -3 53 11 12 13 8 13 -23z m-5850 11 c0 -5 -11 -8 -25 -7 -36
4 -39 11 -5 14 17 1 30 -2 30 -7z m580 -31 c-8 -5 -26 -9 -40 -9 -23 0 -23 1
-5 9 11 5 29 9 40 9 17 1 17 -1 5 -9z m4130 -10 c-6 -11 -15 -20 -20 -20 -6 0
-5 9 2 20 7 11 16 20 21 20 4 0 3 -9 -3 -20z m686 -17 c-11 -11 -19 6 -11 24
8 17 8 17 12 0 3 -10 2 -21 -1 -24z m1219 27 c3 -5 1 -10 -4 -10 -6 0 -11 5
-11 10 0 6 2 10 4 10 3 0 8 -4 11 -10z m-1795 -10 c0 -5 -5 -10 -11 -10 -5 0
-7 5 -4 10 3 6 8 10 11 10 2 0 4 -4 4 -10z m836 -65 c-9 -18 -16 -44 -16 -58
0 -14 -7 -38 -15 -53 l-15 -29 3 42 c1 24 5 43 10 43 4 0 7 11 7 24 0 14 5 28
10 31 6 3 10 16 10 29 0 28 14 44 18 21 2 -9 -3 -31 -12 -50z m764 55 c0 -5
-5 -10 -11 -10 -5 0 -7 5 -4 10 3 6 8 10 11 10 2 0 4 -4 4 -10z m-1006 -61
c-9 -10 -13 -23 -9 -30 5 -7 3 -10 -5 -7 -21 7 -23 24 -5 41 8 9 15 26 16 39
l0 23 10 -24 c7 -18 5 -28 -7 -42z m2251 31 c-3 -5 -10 -10 -16 -10 -5 0 -9 5
-9 10 0 6 7 10 16 10 8 0 12 -4 9 -10z m-505 -31 c0 -6 -4 -7 -10 -4 -5 3 -10
11 -10 16 0 6 5 7 10 4 6 -3 10 -11 10 -16z m-7200 -19 c0 -5 -7 -7 -15 -4 -8
4 -12 10 -9 15 6 11 24 2 24 -11z m40 11 c0 -6 -4 -13 -10 -16 -5 -3 -10 1
-10 9 0 9 5 16 10 16 6 0 10 -4 10 -9z m200 -31 c0 -11 -7 -23 -16 -27 -20 -8
-36 17 -22 34 16 20 38 15 38 -7z m7350 10 c0 -5 -2 -10 -4 -10 -3 0 -8 5 -11
10 -3 6 -1 10 4 10 6 0 11 -4 11 -10z m-250 -30 c0 -5 -4 -10 -10 -10 -5 0
-10 5 -10 10 0 6 5 10 10 10 6 0 10 -4 10 -10z m154 2 c7 -12 -14 -102 -25
-102 -10 0 -12 70 -3 94 7 17 20 21 28 8z m-7224 -32 c0 -5 -4 -10 -10 -10 -5
0 -10 5 -10 10 0 6 5 10 10 10 6 0 10 -4 10 -10z m100 -10 c0 -5 -7 -10 -15
-10 -8 0 -15 5 -15 10 0 6 7 10 15 10 8 0 15 -4 15 -10z m-270 -34 c0 -2 -6
-16 -14 -31 -9 -17 -16 -22 -19 -13 -5 16 10 48 23 48 6 0 10 -2 10 -4z m197
-21 c-9 -7 -15 -19 -12 -27 7 -17 -19 -43 -35 -33 -5 3 -10 12 -10 20 0 16 60
68 69 60 3 -4 -2 -12 -12 -20z m4900 -27 c-3 -8 -6 -5 -6 6 -1 11 2 17 5 13 3
-3 4 -12 1 -19z m-5072 3 c7 -12 -12 -24 -25 -16 -11 7 -4 25 10 25 5 0 11 -4
15 -9z m-45 -41 c0 -5 -8 -10 -17 -10 -15 0 -16 2 -3 10 19 12 20 12 20 0z
m5470 -45 c0 -12 -17 -60 -27 -74 -1 -2 -9 4 -18 12 -13 14 -14 20 -3 39 21
38 48 51 48 23z m1770 -31 c0 -16 -55 -114 -58 -104 -2 6 1 17 7 23 6 6 11 25
11 42 0 18 3 35 7 38 8 8 33 9 33 1z m110 -74 c-6 -11 -13 -20 -15 -20 -3 0
-5 9 -5 20 0 11 7 20 15 20 13 0 14 -4 5 -20z m-2170 -20 c0 -5 -5 -10 -11
-10 -5 0 -7 5 -4 10 3 6 8 10 11 10 2 0 4 -4 4 -10z m-5263 -146 c-3 -3 -12
-4 -19 -1 -8 3 -5 6 6 6 11 1 17 -2 13 -5z m8163 -143 c0 -6 -4 -13 -10 -16
-5 -3 -10 1 -10 9 0 9 5 16 10 16 6 0 10 -4 10 -9z m420 -111 c0 -5 -7 -10
-16 -10 -8 0 -12 5 -9 10 3 6 10 10 16 10 5 0 9 -4 9 -10z m62 -37 c8 -10 1
-13 -31 -13 -22 0 -41 5 -41 10 0 6 12 10 26 10 14 0 23 4 19 10 -3 6 -3 16 2
23 5 8 9 6 11 -8 2 -11 9 -26 14 -32z m-102 33 c0 -2 -7 -7 -16 -10 -8 -3 -12
-2 -9 4 6 10 25 14 25 6z m-186 -21 c3 -8 1 -15 -4 -15 -6 0 -10 7 -10 15 0 8
2 15 4 15 2 0 6 -7 10 -15z m199 -42 c-7 -18 -22 -16 -30 3 -7 19 18 38 28 22
4 -6 5 -17 2 -25z m-8383 7 c0 -5 -4 -10 -10 -10 -5 0 -10 5 -10 10 0 6 5 10
10 10 6 0 10 -4 10 -10z m201 -49 c-13 -24 -33 -38 -52 -38 -25 0 -11 35 20
51 31 17 45 11 32 -13z m8207 -23 c15 -15 16 -38 0 -38 -6 0 -20 -8 -31 -17
-15 -13 -21 -15 -24 -5 -3 6 -16 12 -29 12 -29 0 -32 25 -4 40 17 9 20 8 20
-10 0 -22 1 -23 24 -14 9 3 13 10 10 15 -6 10 3 29 15 29 4 0 12 -5 19 -12z
m-132 -29 c3 -6 1 -16 -5 -22 -9 -9 -14 -8 -21 3 -9 15 -4 30 10 30 5 0 12 -5
16 -11z m-7992 -35 c4 -10 -2 -14 -19 -14 -23 0 -33 18 -19 33 9 9 32 -3 38
-19z m452 10 c-3 -9 -6 -18 -6 -20 0 -2 -8 -4 -17 -4 -17 1 -17 1 0 11 9 6 15
14 12 20 -4 5 -1 9 5 9 7 0 9 -7 6 -16z m-116 -24 c0 -14 5 -18 17 -13 14 6
14 3 -3 -20 -10 -14 -25 -27 -32 -27 -7 0 -10 -4 -7 -10 3 -5 3 -10 -2 -11 -4
0 -20 -3 -35 -5 -25 -4 -28 -1 -28 21 0 14 7 28 15 31 8 4 15 11 15 18 0 10
32 31 53 35 4 0 7 -8 7 -19z m7594 14 c18 -7 12 -24 -10 -24 -8 0 -14 7 -14
15 0 17 2 18 24 9z m121 -4 c3 -5 -1 -10 -9 -10 -9 0 -16 5 -16 10 0 6 4 10 9
10 6 0 13 -4 16 -10z m-7925 -19 c0 -34 -77 -65 -87 -35 -3 11 56 54 74 54 7
0 13 -8 13 -19z m-340 5 c0 -11 -19 -15 -25 -6 -3 5 1 10 9 10 9 0 16 -2 16
-4z m158 -14 c2 -7 -2 -10 -12 -6 -9 3 -16 11 -16 16 0 13 23 5 28 -10z m233
-5 c-10 -9 -11 -8 -5 6 3 10 9 15 12 12 3 -3 0 -11 -7 -18z m-151 3 c0 -5 -2
-10 -4 -10 -3 0 -8 5 -11 10 -3 6 -1 10 4 10 6 0 11 -4 11 -10z m7718 -15 c-6
-14 -15 -25 -20 -25 -4 0 -8 11 -8 25 0 18 5 25 20 25 17 0 18 -3 8 -25z
m-7588 -5 c0 -5 -4 -10 -10 -10 -5 0 -10 5 -10 10 0 6 5 10 10 10 6 0 10 -4
10 -10z m7888 -24 c3 -12 -1 -17 -10 -14 -7 3 -23 -6 -35 -18 -12 -14 -25 -20
-28 -14 -8 13 3 30 19 30 8 0 16 9 19 21 7 24 30 21 35 -5z m-200 -38 c-3 -7
-17 -15 -33 -16 -25 -3 -27 -2 -16 12 16 19 55 22 49 4z m-7498 -29 c0 -5 5
-7 10 -4 6 3 15 3 21 -1 15 -9 -40 -44 -69 -44 l-23 0 23 30 c22 31 38 39 38
19z m7750 -29 c0 -5 -2 -10 -4 -10 -3 0 -8 5 -11 10 -3 6 -1 10 4 10 6 0 11
-4 11 -10z m-605 -30 c3 -5 1 -10 -4 -10 -6 0 -11 5 -11 10 0 6 2 10 4 10 3 0
8 -4 11 -10z m385 -124 c0 -3 -4 -8 -10 -11 -5 -3 -10 -1 -10 4 0 6 5 11 10
11 6 0 10 -2 10 -4z m-7810 -18 c-1 -26 -37 -61 -55 -54 -17 6 -17 7 0 26 10
11 14 20 9 21 -9 0 25 17 39 18 4 1 7 -5 7 -11z m62 -7 c-2 -10 8 -11 39 -6
30 5 40 4 35 -4 -4 -6 -11 -9 -16 -6 -5 3 -18 -3 -30 -15 -22 -22 -90 -29 -90
-9 0 6 9 9 19 6 28 -7 49 9 22 18 -22 7 -26 16 -14 29 11 11 38 1 35 -13z
m7696 7 c-2 -8 7 -13 19 -13 13 0 23 -3 23 -7 0 -5 0 -12 0 -17 0 -15 -63 -1
-82 18 -19 21 -21 20 35 30 4 0 6 -5 5 -11z m432 -33 c0 -13 -4 -14 -22 -4
-34 17 -34 19 -5 19 18 0 27 -5 27 -15z m141 -8 c-1 -12 -15 -9 -19 4 -3 6 1
10 8 8 6 -3 11 -8 11 -12z m-451 -18 c0 -6 -4 -7 -10 -4 -5 3 -10 11 -10 16 0
6 5 7 10 4 6 -3 10 -11 10 -16z m635 -5 c13 -5 14 -8 3 -15 -20 -13 -38 -11
-38 6 0 16 9 19 35 9z m-190 -14 c-3 -5 -10 -10 -16 -10 -5 0 -9 5 -9 10 0 6
7 10 16 10 8 0 12 -4 9 -10z m145 0 c0 -5 -8 -10 -17 -10 -15 0 -16 2 -3 10
19 12 20 12 20 0z m-440 -32 c16 -13 21 -21 13 -24 -9 -4 -9 -12 3 -30 15 -22
15 -24 0 -24 -9 0 -16 4 -16 10 0 5 -6 7 -13 4 -16 -6 -51 31 -43 45 3 5 -1
16 -9 24 -8 9 -15 17 -15 20 0 10 59 -7 80 -25z m-142 15 c18 -4 20 -8 10 -14
-22 -14 -58 -10 -58 6 0 16 12 18 48 8z m-8178 -22 c7 -13 7 -22 0 -26 -5 -3
-10 1 -10 10 0 11 -5 15 -15 12 -15 -7 -29 6 -18 17 12 12 32 6 43 -13z m85
-31 c-3 -5 -11 -10 -16 -10 -6 0 -7 5 -4 10 3 6 11 10 16 10 6 0 7 -4 4 -10z
m8765 -20 c0 -31 -9 -35 -45 -20 -19 8 -19 9 3 9 15 1 22 7 22 21 0 11 5 20
10 20 6 0 10 -13 10 -30z m-99 9 c26 -13 8 -39 -21 -32 -25 7 -26 23 -2 23 14
0 15 2 2 10 -20 13 -4 13 21 -1z m-8751 -9 c0 -5 -6 -10 -14 -10 -8 0 -18 5
-21 10 -3 6 3 10 14 10 12 0 21 -4 21 -10z m8408 -37 c6 -19 -28 -29 -39 -12
-5 8 -9 18 -9 22 0 13 43 3 48 -10z m407 -13 c3 -5 1 -10 -4 -10 -6 0 -11 5
-11 10 0 6 2 10 4 10 3 0 8 -4 11 -10z m-9008 -27 c7 -9 10 -20 7 -24 -8 -14
-44 -11 -44 4 0 7 -4 6 -10 -4 -13 -23 -60 -13 -60 12 0 11 -4 19 -10 19 -5 0
-10 4 -10 8 0 15 114 2 127 -15z m233 4 c0 -2 -7 -18 -16 -35 -15 -31 -46 -43
-59 -22 -3 6 3 10 14 10 12 0 21 5 21 10 0 13 22 39 33 40 4 0 7 -2 7 -3z
m8483 -4 c-7 -2 -19 -2 -25 0 -7 3 -2 5 12 5 14 0 19 -2 13 -5z m647 -8 c10
-12 10 -15 -4 -15 -9 0 -16 7 -16 15 0 8 2 15 4 15 2 0 9 -7 16 -15z m465 -16
c4 -6 5 -12 2 -15 -7 -7 -37 7 -37 17 0 13 27 11 35 -2z m-1009 -27 c-10 -2
-22 0 -28 6 -6 6 0 7 19 4 21 -5 23 -7 9 -10z m-46 -22 c8 -5 11 -10 5 -10 -5
0 -17 5 -25 10 -8 5 -10 10 -5 10 6 0 17 -5 25 -10z m635 0 c3 -5 1 -10 -4
-10 -6 0 -11 5 -11 10 0 6 2 10 4 10 3 0 8 -4 11 -10z m-575 -23 c0 -13 5 -28
11 -34 7 -7 6 -12 -5 -16 -9 -4 -16 -1 -16 5 0 6 -7 16 -17 23 -19 14 -11 45
12 45 9 0 15 -9 15 -23z m831 8 c-1 -15 -24 -12 -29 3 -3 9 2 13 12 10 10 -1
17 -7 17 -13z m-745 -10 c12 -9 14 -14 5 -15 -8 0 -11 -7 -8 -20 3 -13 0 -20
-8 -20 -7 0 -15 -6 -18 -12 -2 -7 -8 -9 -13 -5 -5 4 -4 11 2 15 18 12 25 44
13 58 -15 18 2 18 27 -1z m844 -46 c0 -5 -11 -11 -25 -15 -14 -3 -25 -10 -25
-15 0 -5 -9 -4 -19 3 -20 12 -18 35 7 55 11 9 19 9 38 -4 13 -8 24 -19 24 -24z
m35 -18 c-9 -16 -25 -3 -18 15 4 10 9 12 15 6 6 -6 7 -15 3 -21z m-9891 -43
c-3 -5 -10 -6 -15 -2 -5 3 -7 9 -4 14 3 4 -5 10 -18 14 -18 5 -19 8 -7 16 11
7 19 4 32 -12 9 -13 14 -26 12 -30z m9506 36 c0 -2 -7 -4 -15 -4 -8 0 -15 4
-15 10 0 5 7 7 15 4 8 -4 15 -8 15 -10z m310 -35 c0 -12 -57 -12 -64 0 -3 4
-3 10 -1 13 8 8 65 -4 65 -13z m-45 -49 c19 -9 19 -9 -2 -16 -13 -3 -23 -13
-23 -21 0 -9 6 -13 15 -9 9 3 15 0 15 -9 0 -9 -10 -15 -26 -15 -21 0 -24 -3
-15 -14 9 -10 8 -15 -3 -19 -16 -6 -38 36 -30 58 4 8 1 15 -5 15 -6 0 -11 -7
-11 -16 0 -8 -4 -12 -10 -9 -15 10 -12 22 12 45 23 21 50 24 83 10z m-68 -132
c-3 -8 -6 -5 -6 6 -1 11 2 17 5 13 3 -3 4 -12 1 -19z m-4357 -75 c0 -5 -5 -15
-10 -23 -8 -12 -10 -11 -10 8 0 12 5 22 10 22 6 0 10 -3 10 -7z m3920 -50 c0
-5 -5 -15 -10 -23 -8 -12 -10 -11 -10 8 0 12 5 22 10 22 6 0 10 -3 10 -7z
m-230 -97 c0 -13 3 -32 7 -41 5 -15 3 -16 -14 -7 -15 8 -19 18 -15 41 5 37 22
42 22 7z m-9130 -120 c0 -3 -4 -8 -10 -11 -5 -3 -10 -1 -10 4 0 6 5 11 10 11
6 0 10 -2 10 -4z m1647 -777 c-30 -17 -77 -29 -77 -18 0 5 5 9 11 9 5 0 7 5 4
10 -4 6 11 10 37 10 35 -1 40 -3 25 -11z m-197 -69 c12 -8 9 -10 -12 -10 -16
0 -28 5 -28 10 0 13 20 13 40 0z m320 1 c0 -15 -23 -26 -28 -13 -5 15 -52 16
-52 1 0 -6 7 -8 16 -5 11 4 14 1 12 -12 -2 -13 -15 -18 -52 -20 -36 -2 -47 0
-44 10 3 7 14 13 26 12 12 0 19 3 16 8 -3 4 1 8 8 8 9 0 9 3 -2 10 -11 7 2 10
43 10 31 0 57 -4 57 -9z m30 -11 c0 -5 -2 -10 -4 -10 -3 0 -8 5 -11 10 -3 6
-1 10 4 10 6 0 11 -4 11 -10z m-275 -30 c3 -5 -1 -10 -10 -10 -9 0 -13 5 -10
10 3 6 8 10 10 10 2 0 7 -4 10 -10z m2583 -245 c17 -38 15 -63 -9 -88 l-20
-22 6 52 c3 31 2 54 -5 58 -14 9 -12 25 3 25 8 0 19 -11 25 -25z m-98 -95 c11
-7 12 -12 3 -21 -8 -8 -8 -19 3 -45 19 -45 18 -54 -6 -54 -25 0 -25 -11 -1
-60 15 -32 16 -40 5 -40 -23 0 -16 -18 9 -23 16 -3 13 -5 -11 -6 -35 -1 -56
24 -32 39 17 11 -5 23 -29 15 -14 -4 -23 3 -37 27 -17 29 -20 58 -15 129 1 11
10 17 27 17 14 0 33 7 42 16 19 19 22 19 42 6z m-3995 -20 c3 -5 1 -10 -4 -10
-6 0 -11 5 -11 10 0 6 2 10 4 10 3 0 8 -4 11 -10z m-78 -16 c-3 -3 -12 -4 -19
-1 -8 3 -5 6 6 6 11 1 17 -2 13 -5z m4169 -101 c-10 -10 -19 5 -10 18 6 11 8
11 12 0 2 -7 1 -15 -2 -18z m-26 -33 c0 -5 -2 -10 -4 -10 -3 0 -8 5 -11 10 -3
6 -1 10 4 10 6 0 11 -4 11 -10z m-3673 -6 c-3 -3 -12 -4 -19 -1 -8 3 -5 6 6 6
11 1 17 -2 13 -5z m3588 -94 c3 -5 1 -10 -4 -10 -6 0 -11 5 -11 10 0 6 2 10 4
10 3 0 8 -4 11 -10z m-3555 -614 c0 -3 -4 -8 -10 -11 -5 -3 -10 -1 -10 4 0 6
5 11 10 11 6 0 10 -2 10 -4z m-480 -1726 c0 -5 -5 -10 -11 -10 -5 0 -7 5 -4
10 3 6 8 10 11 10 2 0 4 -4 4 -10z m136 -5 c18 -14 18 -14 -8 -13 -16 1 -28 8
-28 15 0 17 12 16 36 -2z m94 5 c0 -5 -4 -10 -10 -10 -5 0 -10 5 -10 10 0 6 5
10 10 10 6 0 10 -4 10 -10z m113 -41 c-9 -9 -12 -7 -10 9 1 14 5 18 11 12 7
-7 6 -14 -1 -21z m111 12 c3 -5 0 -11 -7 -14 -19 -7 -77 4 -71 14 7 12 71 12
78 0z m201 -3 c11 -11 -25 -30 -42 -23 -10 5 -22 7 -27 6 -16 -4 -86 10 -86
17 0 8 147 8 155 0z m-570 -88 c-3 -5 -10 -10 -16 -10 -5 0 -9 5 -9 10 0 6 7
10 16 10 8 0 12 -4 9 -10z m-31 -19 c6 -10 -54 -35 -62 -26 -7 7 29 34 45 35
6 0 14 -4 17 -9z m914 -27 c29 -8 28 -18 -3 -32 -16 -7 -33 -8 -47 -2 -19 7
-20 9 -4 9 12 1 16 6 12 16 -6 16 5 18 42 9z m9 -160 c-3 -3 -12 -4 -19 -1 -8
3 -5 6 6 6 11 1 17 -2 13 -5z m2278 -215 c-8 -12 -35 -12 -35 0 0 11 22 20 33
14 4 -2 5 -9 2 -14z m-3150 -79 c3 -5 1 -10 -4 -10 -6 0 -11 5 -11 10 0 6 2
10 4 10 3 0 8 -4 11 -10z m-75 -80 c0 -5 -4 -10 -10 -10 -5 0 -10 5 -10 10 0
6 5 10 10 10 6 0 10 -4 10 -10z m792 -22 c-6 -6 -16 -7 -22 -3 -9 6 -9 9 1 16
17 10 34 0 21 -13z m-22 -28 c0 -5 -2 -10 -4 -10 -3 0 -8 5 -11 10 -3 6 -1 10
4 10 6 0 11 -4 11 -10z m210 -130 c0 -11 -7 -20 -15 -20 -17 0 -18 2 -9 24 9
23 24 20 24 -4z m-100 -34 c0 -11 -19 -15 -25 -6 -3 5 1 10 9 10 9 0 16 -2 16
-4z m-165 -196 c-3 -5 -11 -10 -16 -10 -6 0 -7 5 -4 10 3 6 11 10 16 10 6 0 7
-4 4 -10z m148 3 c3 -5 -6 -9 -20 -10 -19 -1 -22 1 -12 8 17 11 26 11 32 2z
m-823 -53 c0 -5 -12 -10 -27 -9 -25 0 -26 1 -8 9 27 12 35 12 35 0z m1400 0
c0 -5 -5 -10 -11 -10 -5 0 -7 5 -4 10 3 6 8 10 11 10 2 0 4 -4 4 -10z m57 -6
c-3 -3 -12 -4 -19 -1 -8 3 -5 6 6 6 11 1 17 -2 13 -5z m-863 -92 c2 -4 -4 -9
-15 -9 -10 -1 -19 2 -19 8 0 11 27 12 34 1z m556 -157 c-7 -8 -16 -15 -21 -15
-5 0 -9 7 -9 15 0 9 9 15 21 15 18 0 19 -2 9 -15z m-560 -44 c0 -13 -53 -38
-69 -33 -8 3 -3 11 16 23 30 20 53 24 53 10z m317 -39 c-30 -4 -69 -46 -61
-67 4 -8 -12 -24 -41 -40 -51 -31 -54 -41 -6 -24 24 9 35 8 47 -2 14 -12 14
-14 -5 -21 -28 -10 -27 -26 2 -21 14 3 29 -3 41 -16 18 -20 19 -20 67 30 27
28 50 56 51 62 0 7 1 19 2 27 1 9 13 16 34 18 30 3 33 1 27 -17 -6 -20 -5 -20
39 -7 25 8 46 12 46 8 0 -3 9 3 20 13 16 15 22 16 35 5 21 -17 9 -28 -36 -33
-51 -6 -64 -16 -42 -32 21 -16 13 -21 -46 -29 -18 -3 -38 -9 -44 -15 -6 -6
-18 -11 -27 -11 -8 0 -22 -9 -30 -20 -8 -11 -24 -20 -36 -20 -23 0 -80 -26
-89 -41 -4 -5 -18 -9 -33 -9 -21 0 -23 3 -12 10 24 15 3 23 -30 11 -28 -9 -33
-8 -37 9 -3 11 -9 17 -14 15 -4 -3 -6 -12 -3 -20 6 -14 -49 -35 -93 -35 -13 0
-23 -4 -23 -10 0 -5 -7 -10 -16 -10 -30 0 31 50 66 55 18 2 38 9 44 16 8 9 1
10 -32 6 -24 -3 -40 -1 -36 4 3 5 11 9 18 9 8 0 24 9 37 21 l24 20 -25 -7
c-14 -4 -38 -7 -54 -6 -16 0 -34 -5 -40 -13 -6 -7 -35 -18 -65 -24 -30 -7 -60
-16 -67 -22 -9 -8 -16 -5 -25 9 -7 12 -19 17 -31 14 -24 -6 -25 26 0 35 9 4
25 15 35 24 17 16 15 16 -43 13 -42 -2 -60 1 -57 9 5 15 122 72 221 109 86 31
216 48 238 31 16 -12 98 -5 98 9 0 6 8 4 17 -3 15 -13 14 -14 -10 -17z m-534
-29 c-18 -7 -16 -23 2 -23 28 0 15 -16 -27 -35 -24 -10 -62 -27 -85 -37 -39
-18 -44 -19 -58 -4 -9 9 -28 16 -41 16 -38 0 -19 19 26 26 21 4 41 12 44 19 3
8 25 17 51 20 25 4 48 11 51 16 3 5 15 9 27 8 12 0 16 -3 10 -6z m570 1 c12
-12 -35 -44 -62 -43 -22 2 -23 2 -5 6 12 2 24 13 27 24 5 18 27 26 40 13z
m587 -34 c0 -5 -7 -10 -15 -10 -8 0 -15 5 -15 10 0 6 7 10 15 10 8 0 15 -4 15
-10z m2413 4 c8 -8 -3 -34 -14 -34 -5 0 -9 9 -9 20 0 19 11 26 23 14z m-3860
-11 c-7 -2 -19 -2 -25 0 -7 3 -2 5 12 5 14 0 19 -2 13 -5z m1278 -3 c2 -14 5
-22 13 -42 5 -10 2 -26 -8 -40 -22 -31 -21 -34 16 -47 43 -15 32 -21 -48 -25
-38 -2 -63 -1 -56 1 6 3 12 9 12 15 0 7 -19 8 -52 4 -46 -6 -55 -4 -65 13 -10
16 -9 22 12 35 13 9 29 16 35 16 5 0 10 4 10 9 0 5 14 12 31 16 17 4 40 18 52
31 21 25 46 32 48 14z m-1291 -34 c0 -2 -11 -6 -25 -8 -14 -3 -25 -1 -25 3 0
5 11 9 25 9 14 0 25 -2 25 -4z m3825 -40 c1 -6 5 -19 9 -29 6 -13 3 -22 -10
-31 -17 -13 -17 -14 0 -31 10 -10 14 -21 9 -24 -15 -11 -43 -68 -36 -75 3 -3
1 -6 -5 -6 -7 0 -12 4 -12 10 0 14 23 64 34 71 5 4 5 12 2 18 -5 8 -16 6 -37
-5 -25 -12 -30 -20 -25 -38 4 -15 -1 -29 -13 -40 -18 -16 -18 -15 -17 22 1 21
12 55 24 76 12 20 22 41 22 47 0 5 5 9 11 9 7 0 9 10 5 25 -4 14 -4 30 -1 36
7 10 39 -18 40 -35z m34 2 c1 -5 -3 -8 -9 -8 -5 0 -10 12 -9 28 0 24 1 25 9 7
5 -11 9 -23 9 -27z m-129 22 c0 -5 -10 -10 -22 -10 -19 0 -20 2 -8 10 19 13
30 13 30 0z m-3640 -10 c0 -5 -4 -10 -10 -10 -5 0 -10 5 -10 10 0 6 5 10 10
10 6 0 10 -4 10 -10z m1340 -25 c-7 -8 -24 -15 -38 -15 -31 0 -18 16 18 23 14
2 27 5 29 6 2 0 -2 -6 -9 -14z m-1386 -36 c-7 -12 -64 -12 -64 0 0 11 38 19
57 13 7 -2 10 -8 7 -13z m186 12 c0 -5 -7 -11 -15 -15 -8 -3 -15 -1 -15 4 0 5
-6 7 -14 4 -8 -3 -17 -1 -21 5 -4 7 7 11 29 11 20 0 36 -4 36 -9z m-110 -31
c0 -5 -4 -10 -10 -10 -5 0 -10 5 -10 10 0 6 5 10 10 10 6 0 10 -4 10 -10z m80
-3 c0 -9 -10 -12 -30 -9 -44 6 -47 22 -6 22 23 0 36 -5 36 -13z m3400 -16 c0
-6 -4 -13 -10 -16 -5 -3 -10 1 -10 9 0 9 5 16 10 16 6 0 10 -4 10 -9z m91 -29
c-6 -2 -11 -10 -11 -18 0 -8 -4 -14 -10 -14 -11 0 -12 6 -4 38 5 19 9 20 21
10 10 -8 11 -14 4 -16z m-3065 -73 c-22 -12 -76 -18 -76 -8 0 5 14 12 31 16
17 3 33 13 37 21 4 13 7 12 12 -4 4 -11 3 -22 -4 -25z m-142 12 c3 -5 -1 -12
-10 -15 -20 -8 -29 -1 -19 13 8 13 22 14 29 2z m206 -58 c-1 -24 -63 -69 -80
-58 -5 3 -10 0 -12 -7 -3 -9 -6 -9 -12 0 -4 7 -2 12 3 12 6 0 11 6 11 14 0 7
15 21 33 30 35 17 57 20 57 9z m3176 -28 c-11 -29 35 -45 147 -49 127 -5 207
-21 387 -78 91 -29 240 -101 272 -131 15 -14 35 -28 45 -31 10 -3 44 -31 75
-61 31 -30 62 -55 68 -55 5 0 10 -3 10 -8 0 -4 20 -29 45 -56 24 -27 48 -58
51 -70 4 -12 20 -33 35 -47 16 -14 29 -29 29 -32 0 -14 -30 -6 -47 12 -10 10
-33 26 -51 35 -18 9 -35 23 -38 31 -3 8 -14 17 -25 20 -10 4 -19 13 -19 21 0
8 -4 13 -9 9 -5 -3 -12 3 -15 12 -3 10 -30 31 -60 46 -29 15 -62 36 -72 45
-19 17 -44 32 -114 69 -19 10 -37 21 -40 24 -3 4 -15 9 -27 13 -13 4 -23 11
-23 15 0 4 -26 16 -57 26 -32 9 -71 23 -88 30 -16 8 -46 17 -65 21 -19 3 -39
10 -45 13 -5 4 -28 8 -50 9 -47 2 -173 29 -197 42 -10 6 -23 7 -31 4 -7 -2
-45 -1 -84 4 -38 4 -82 5 -96 1 -15 -4 -29 -4 -31 0 -3 4 -59 6 -126 5 -85 -1
-125 2 -133 11 -9 9 -17 7 -36 -11 -19 -17 -28 -20 -38 -12 -7 6 -28 7 -48 4
-46 -9 -59 0 -37 24 10 12 29 20 49 20 18 0 42 6 53 13 17 10 22 9 30 -3 7
-10 13 -11 18 -4 8 12 4 11 162 19 133 6 197 20 211 46 12 23 24 25 15 4z
m-3126 -5 c0 -5 -7 -10 -16 -10 -8 0 -12 5 -9 10 3 6 10 10 16 10 5 0 9 -4 9
-10z m130 -60 c-20 -13 -53 -13 -45 0 3 6 18 10 33 10 21 0 24 -2 12 -10z
m640 -49 c0 -5 -7 -11 -15 -15 -9 -3 -15 0 -15 9 0 8 7 15 15 15 8 0 15 -4 15
-9z m43 -26 c-10 -14 -24 -25 -31 -25 -14 0 -9 13 17 40 23 25 34 13 14 -15z
m-257 4 c-15 -11 -36 -19 -48 -16 -22 3 -22 4 -3 11 11 4 27 11 35 16 30 17
42 9 16 -11z m134 -7 c0 -13 -12 -22 -22 -16 -10 6 -1 24 13 24 5 0 9 -4 9 -8z
m-255 -12 c3 -5 -1 -10 -10 -10 -9 0 -13 5 -10 10 3 6 8 10 10 10 2 0 7 -4 10
-10z m-587 -24 c-10 -7 -18 -18 -18 -25 0 -6 -13 -11 -30 -11 -16 0 -30 4 -30
10 0 13 50 39 75 39 19 0 19 0 3 -13z m542 -10 c-19 -18 -70 -32 -70 -19 0 12
39 31 65 32 17 1 17 -1 5 -13z m-530 -16 c0 -5 -2 -10 -4 -10 -3 0 -8 5 -11
10 -3 6 -1 10 4 10 6 0 11 -4 11 -10z m430 -57 c0 -4 -19 -25 -42 -46 l-43
-38 55 3 c45 2 54 0 51 -12 -2 -8 -4 -22 -5 -30 0 -8 -5 -18 -11 -22 -6 -4 -2
-8 8 -8 10 0 20 7 23 15 4 8 10 15 15 15 5 0 9 -7 9 -15 0 -8 6 -15 13 -15 6
0 3 -6 -7 -12 -11 -6 -32 -24 -48 -40 -26 -26 -32 -28 -63 -19 -19 5 -33 6
-30 1 3 -4 -11 -10 -31 -12 -23 -3 -38 0 -41 8 -3 10 -11 10 -28 2 -30 -14
-22 -37 11 -30 13 2 24 1 24 -4 0 -17 -35 -44 -57 -44 -20 0 -23 4 -18 20 5
17 2 20 -22 21 -43 2 -56 -1 -76 -19 -19 -17 -117 -34 -117 -20 0 4 7 8 16 8
8 0 12 4 9 10 -3 5 -21 8 -40 5 -19 -2 -37 0 -40 5 -3 5 28 34 70 65 41 31 75
60 75 65 0 17 -25 11 -40 -10 -8 -11 -18 -20 -22 -20 -4 0 -16 -8 -26 -17 -51
-48 -106 -93 -115 -93 -5 0 -4 7 3 15 10 13 10 19 -4 34 -15 16 -15 20 -1 31
19 16 9 32 -18 29 -38 -3 -47 1 -41 16 4 8 14 15 24 15 22 0 44 25 35 40 -8
13 22 50 42 50 7 0 22 6 33 12 16 10 22 10 32 -4 7 -8 19 -17 26 -20 9 -2 6
-12 -12 -33 -14 -16 -28 -26 -31 -23 -6 6 -45 -26 -45 -37 0 -3 7 -5 15 -5 8
0 15 5 15 10 0 6 6 10 14 10 8 0 29 13 46 29 51 46 65 57 83 64 27 10 20 -5
-15 -35 -31 -26 -31 -28 -10 -28 12 0 22 -6 22 -12 0 -8 7 -5 15 6 8 11 15 16
15 11 0 -4 8 -2 18 6 27 23 79 49 95 49 8 0 20 6 26 14 7 8 28 14 47 13 19 -1
38 4 42 10 6 9 16 13 65 22 4 0 7 -2 7 -6z m-218 -10 c-23 -3 -32 -9 -28 -18
4 -12 -40 -32 -51 -22 -11 11 52 47 81 45 l31 -1 -33 -4z m5568 -27 c0 -7 -7
-19 -15 -26 -13 -11 -15 -8 -15 14 0 16 5 26 15 26 8 0 15 -6 15 -14z m-5936
-33 c-1 -21 -2 -43 -3 -50 -1 -6 -10 -9 -21 -6 -11 3 -20 1 -20 -5 0 -5 -11
-12 -25 -15 -25 -4 -25 -3 -10 19 9 14 11 25 5 29 -6 3 -10 12 -10 18 0 8 4 7
9 -2 8 -12 16 -9 42 17 18 18 33 32 34 32 1 0 1 -17 -1 -37z m1041 7 c-3 -5
-12 -10 -18 -10 -7 0 -6 4 3 10 19 12 23 12 15 0z m-1285 -20 c0 -5 -6 -10
-14 -10 -8 0 -21 -2 -29 -5 -8 -4 -14 0 -14 10 0 10 10 15 29 15 15 0 28 -4
28 -10z m1258 -12 c3 -14 -3 -18 -27 -18 -34 0 -34 0 -25 25 8 21 48 16 52 -7z
m-1343 2 c-3 -5 -13 -10 -21 -10 -8 0 -14 5 -14 10 0 6 9 10 21 10 11 0 17 -4
14 -10z m168 -37 c-20 -15 -53 -17 -53 -4 0 6 12 16 28 23 32 16 52 1 25 -19z
m37 27 c0 -5 -4 -10 -10 -10 -5 0 -10 5 -10 10 0 6 5 10 10 10 6 0 10 -4 10
-10z m929 -110 c0 -12 -2 -11 -7 2 -9 22 -37 2 -37 -27 0 -11 -8 -21 -17 -23
-13 -2 -16 1 -12 12 3 9 1 16 -5 16 -12 0 16 29 45 46 21 12 34 2 33 -26z
m131 0 c0 -5 -4 -10 -10 -10 -5 0 -10 5 -10 10 0 6 5 10 10 10 6 0 10 -4 10
-10z m-61 -41 c-19 -12 -42 -11 -34 1 3 6 13 10 21 10 8 0 14 6 15 13 0 8 2 8
6 -2 3 -7 -1 -17 -8 -22z m-839 1 c0 -5 -4 -10 -10 -10 -5 0 -10 5 -10 10 0 6
5 10 10 10 6 0 10 -4 10 -10z m680 6 c0 -2 -7 -7 -16 -10 -8 -3 -12 -2 -9 4 6
10 25 14 25 6z m-40 -35 c0 -6 -4 -13 -10 -16 -5 -3 -10 1 -10 9 0 9 5 16 10
16 6 0 10 -4 10 -9z m-220 -101 c4 0 6 -9 3 -20 -3 -12 -14 -20 -27 -20 -15 0
-17 -3 -7 -9 17 -11 4 -18 -44 -25 -70 -9 -100 -17 -103 -27 -3 -8 -78 -49
-90 -49 -2 0 -1 7 2 15 8 21 -14 28 -47 16 -15 -6 -27 -7 -26 -3 0 9 96 72
110 72 6 0 9 7 5 15 -3 9 0 15 9 15 8 0 15 -5 15 -11 0 -6 7 -3 16 5 8 9 23
16 32 16 9 0 27 3 40 6 16 5 22 2 22 -10 0 -21 6 -20 33 4 12 11 27 18 35 15
7 -3 17 -5 22 -5z m-410 -60 c-19 -12 -30 -12 -30 -1 0 10 31 20 40 14 2 -2
-2 -8 -10 -13z m360 -60 c0 -5 -5 -10 -11 -10 -5 0 -7 5 -4 10 3 6 8 10 11 10
2 0 4 -4 4 -10z m-950 -44 c0 -3 -4 -8 -10 -11 -5 -3 -10 -1 -10 4 0 6 5 11
10 11 6 0 10 -2 10 -4z m358 -38 c-2 -7 10 -14 26 -17 16 -3 31 -12 34 -20 4
-11 -2 -12 -24 -5 -16 4 -46 8 -66 8 -43 0 -45 2 -21 28 18 20 54 25 51 6z
m-268 -88 c0 -5 -4 -10 -10 -10 -5 0 -10 5 -10 10 0 6 5 10 10 10 6 0 10 -4
10 -10z m5145 -74 c28 -7 41 -50 26 -89 -9 -23 -12 -25 -36 -14 -21 10 -25 18
-23 47 1 20 -2 41 -6 48 -4 7 -4 22 0 35 l8 22 4 -22 c2 -12 13 -24 27 -27z
m-4674 -28 c3 -4 25 -2 48 7 57 20 64 19 51 -5 -10 -19 -9 -20 17 -14 15 4 34
12 42 18 11 8 15 8 18 -1 5 -15 53 -18 53 -3 0 6 7 10 15 10 9 0 12 -6 9 -15
-4 -10 0 -15 11 -15 9 0 13 -4 10 -10 -3 -5 -15 -10 -26 -10 -11 0 -22 -7 -25
-15 -4 -8 -12 -15 -19 -15 -7 0 -18 -7 -25 -15 -18 -21 -33 -19 -27 4 4 15 -2
22 -26 30 -43 16 -77 14 -77 -4 0 -8 -3 -15 -7 -16 -71 -5 -99 -13 -110 -29
-7 -11 -36 -31 -63 -46 -27 -15 -48 -30 -45 -33 11 -19 -133 -14 -152 5 -9 8
-23 14 -32 12 -9 -2 -26 8 -39 21 -21 23 -26 24 -56 13 -37 -14 -76 -16 -76
-4 0 4 18 21 39 39 26 22 45 30 60 26 12 -3 21 -1 21 5 0 6 17 14 37 17 21 3
53 13 71 21 18 8 37 12 42 9 5 -3 11 -1 15 4 5 10 65 -5 65 -16 0 -3 -8 -12
-17 -19 -17 -12 -17 -13 -1 -14 9 0 20 5 23 10 3 6 12 10 20 10 7 0 27 13 44
29 27 25 37 29 69 24 20 -3 40 -10 43 -15z m384 -18 c3 -5 -1 -10 -9 -10 -8 0
-20 -8 -25 -19 -6 -10 -22 -26 -37 -35 -26 -18 -26 -17 -19 6 7 25 53 68 72
68 6 0 15 -4 18 -10z m-885 -10 c0 -5 -4 -10 -10 -10 -5 0 -10 5 -10 10 0 6 5
10 10 10 6 0 10 -4 10 -10z m585 -119 c-15 -14 -55 -23 -55 -13 0 15 12 22 39
22 15 0 21 -4 16 -9z m4705 -31 c0 -5 -4 -10 -10 -10 -5 0 -10 5 -10 10 0 6 5
10 10 10 6 0 10 -4 10 -10z m-4760 -295 c-7 -9 -15 -13 -18 -10 -3 2 1 11 8
20 7 9 15 13 18 10 3 -2 -1 -11 -8 -20z m-331 -2 c0 -13 -81 -74 -88 -67 -3 3
12 21 33 40 38 33 57 42 55 27z m-272 -39 c-3 -3 -12 -4 -19 -1 -8 3 -5 6 6 6
11 1 17 -2 13 -5z"/>
<path d="M6705 9880 c-3 -5 -1 -10 4 -10 6 0 11 5 11 10 0 6 -2 10 -4 10 -3 0
-8 -4 -11 -10z"/>
<path d="M758 1793 c7 -3 16 -2 19 1 4 3 -2 6 -13 5 -11 0 -14 -3 -6 -6z"/>
<path d="M712 1260 c-7 -11 -8 -20 -3 -20 9 0 24 30 18 36 -1 2 -8 -6 -15 -16z"/>
<path d="M393 523 c9 -2 23 -2 30 0 6 3 -1 5 -18 5 -16 0 -22 -2 -12 -5z"/>
<path d="M495 510 c-3 -5 -1 -10 4 -10 6 0 11 5 11 10 0 6 -2 10 -4 10 -3 0
-8 -4 -11 -10z"/>
<path d="M4440 10345 c0 -9 5 -15 11 -13 6 2 11 8 11 13 0 5 -5 11 -11 13 -6
2 -11 -4 -11 -13z"/>
<path d="M4495 10350 c4 -6 11 -8 16 -5 14 9 11 15 -7 15 -8 0 -12 -5 -9 -10z"/>
<path d="M1192 10330 c0 -14 2 -19 5 -12 2 6 2 18 0 25 -3 6 -5 1 -5 -13z"/>
<path d="M1155 10330 c4 -6 11 -8 16 -5 14 9 11 15 -7 15 -8 0 -12 -5 -9 -10z"/>
<path d="M1585 10310 c3 -5 8 -10 11 -10 2 0 4 5 4 10 0 6 -5 10 -11 10 -5 0
-7 -4 -4 -10z"/>
<path d="M4093 10312 c-7 -5 -9 -13 -4 -21 12 -19 30 -10 22 11 -3 10 -11 14
-18 10z"/>
<path d="M6190 10310 c0 -5 5 -10 11 -10 5 0 7 5 4 10 -3 6 -8 10 -11 10 -2 0
-4 -4 -4 -10z"/>
<path d="M1120 10300 c0 -12 48 -36 55 -28 3 3 3 12 0 19 -6 17 -55 24 -55 9z"/>
<path d="M1055 10290 c3 -5 8 -10 11 -10 2 0 4 5 4 10 0 6 -5 10 -11 10 -5 0
-7 -4 -4 -10z"/>
<path d="M5208 10283 c7 -3 16 -2 19 1 4 3 -2 6 -13 5 -11 0 -14 -3 -6 -6z"/>
<path d="M5390 10280 c0 -5 7 -10 16 -10 8 0 12 5 9 10 -3 6 -10 10 -16 10 -5
0 -9 -4 -9 -10z"/>
<path d="M497 10274 c-4 -4 -7 -14 -7 -23 0 -11 3 -12 11 -4 6 6 10 16 7 23
-2 6 -7 8 -11 4z"/>
<path d="M1077 10273 c-4 -3 -7 -15 -7 -25 0 -15 5 -18 20 -13 11 4 20 2 20
-4 0 -6 -7 -11 -15 -11 -8 0 -15 -4 -15 -10 0 -5 4 -10 9 -10 6 0 13 5 16 10
3 6 19 10 36 10 31 0 37 11 16 29 -10 8 -17 7 -25 -1 -9 -9 -12 -7 -12 10 0
21 -28 31 -43 15z"/>
<path d="M5060 10255 c0 -8 5 -15 10 -15 6 0 10 7 10 15 0 8 -4 15 -10 15 -5
0 -10 -7 -10 -15z"/>
<path d="M6177 10255 c-4 -8 -2 -17 3 -20 6 -4 10 3 10 14 0 25 -6 27 -13 6z"/>
<path d="M520 10251 c0 -5 5 -13 10 -16 6 -3 10 -2 10 4 0 5 -4 13 -10 16 -5
3 -10 2 -10 -4z"/>
<path d="M5247 10246 c-3 -8 -3 -17 0 -20 9 -8 43 13 42 27 0 9 -2 8 -6 -1 -4
-9 -9 -10 -18 -2 -9 8 -14 7 -18 -4z"/>
<path d="M5425 10250 c-19 -8 -19 -9 3 -9 12 -1 22 4 22 9 0 6 -1 10 -2 9 -2
0 -12 -4 -23 -9z"/>
<path d="M6655 10210 c-8 -13 4 -32 16 -25 12 8 12 35 0 35 -6 0 -13 -4 -16
-10z"/>
<path d="M611 10185 c-26 -28 -22 -54 8 -62 11 -3 17 -11 15 -18 -3 -7 0 -16
7 -21 9 -5 11 1 6 23 -3 17 -1 35 6 42 8 8 8 11 -3 11 -9 0 -8 5 6 15 16 12
17 14 2 15 -9 0 -18 4 -20 10 -1 5 -14 -2 -27 -15z"/>
<path d="M5010 10190 c0 -5 4 -10 9 -10 6 0 13 5 16 10 3 6 -1 10 -9 10 -9 0
-16 -4 -16 -10z"/>
<path d="M1080 10175 c0 -8 7 -15 15 -15 8 0 15 -5 15 -12 0 -6 3 -9 6 -6 8 8
-14 48 -26 48 -6 0 -10 -7 -10 -15z"/>
<path d="M5142 10179 c2 -6 8 -10 13 -10 5 0 11 4 13 10 2 6 -4 11 -13 11 -9
0 -15 -5 -13 -11z"/>
<path d="M4927 10173 c-11 -10 -8 -43 3 -43 6 0 10 11 10 25 0 26 -2 29 -13
18z"/>
<path d="M920 10155 c0 -8 7 -15 16 -15 14 0 14 3 4 15 -7 8 -14 15 -16 15 -2
0 -4 -7 -4 -15z"/>
<path d="M560 10119 c0 -5 5 -7 10 -4 6 3 10 8 10 11 0 2 -4 4 -10 4 -5 0 -10
-5 -10 -11z"/>
<path d="M5629 10103 c-7 -20 -6 -28 3 -35 20 -12 22 -10 33 25 10 29 9 33 -8
34 -11 1 -22 -8 -28 -24z"/>
<path d="M4877 10114 c-13 -13 -7 -24 14 -24 11 0 19 5 17 12 -5 14 -22 21
-31 12z"/>
<path d="M4948 10112 c-10 -2 -18 -8 -18 -14 0 -5 -8 -22 -18 -36 -10 -15 -18
-40 -17 -57 1 -16 3 -38 4 -47 0 -10 8 -18 16 -18 17 0 17 0 20 55 1 21 7 41
14 43 6 2 9 7 6 12 -3 5 0 21 5 36 12 31 11 32 -12 26z"/>
<path d="M5510 10109 c0 -5 5 -7 10 -4 6 3 10 8 10 11 0 2 -4 4 -10 4 -5 0
-10 -5 -10 -11z"/>
<path d="M5040 10070 c0 -5 5 -10 11 -10 5 0 7 5 4 10 -3 6 -8 10 -11 10 -2 0
-4 -4 -4 -10z"/>
<path d="M5085 10070 c-3 -5 3 -10 15 -10 12 0 18 5 15 10 -3 6 -10 10 -15 10
-5 0 -12 -4 -15 -10z"/>
<path d="M7135 10069 c-4 -6 -5 -12 -2 -15 2 -3 7 2 10 11 7 17 1 20 -8 4z"/>
<path d="M521 9996 c-15 -18 0 -34 37 -41 30 -5 33 -3 30 17 -4 26 -51 43 -67
24z"/>
<path d="M420 9950 c0 -5 7 -10 15 -10 8 0 15 5 15 10 0 6 -7 10 -15 10 -8 0
-15 -4 -15 -10z"/>
<path d="M375 9940 c3 -5 10 -10 16 -10 5 0 9 5 9 10 0 6 -7 10 -16 10 -8 0
-12 -4 -9 -10z"/>
<path d="M4910 9916 c0 -9 5 -16 10 -16 6 0 10 4 10 9 0 6 -4 13 -10 16 -5 3
-10 -1 -10 -9z"/>
<path d="M601 9904 c0 -11 3 -14 6 -6 3 7 2 16 -1 19 -3 4 -6 -2 -5 -13z"/>
<path d="M645 9860 c3 -5 10 -10 16 -10 5 0 9 5 9 10 0 6 -7 10 -16 10 -8 0
-12 -4 -9 -10z"/>
<path d="M7684 9845 c-4 -8 -13 -15 -21 -15 -8 0 -11 -5 -8 -11 4 -6 13 -8 21
-5 8 3 14 1 14 -4 0 -6 8 -10 18 -10 10 0 23 -5 30 -12 6 -6 14 -9 18 -5 11
10 -6 27 -28 27 -16 0 -19 5 -16 25 6 28 -18 36 -28 10z"/>
<path d="M7970 9849 c0 -5 5 -7 10 -4 6 3 10 8 10 11 0 2 -4 4 -10 4 -5 0 -10
-5 -10 -11z"/>
<path d="M7750 9834 c0 -9 5 -14 12 -12 18 6 21 28 4 28 -9 0 -16 -7 -16 -16z"/>
<path d="M7836 9765 c4 -8 1 -15 -6 -15 -6 0 -8 -5 -5 -10 4 -6 11 -8 16 -5
12 8 12 45 -1 45 -5 0 -7 -7 -4 -15z"/>
<path d="M495 9710 c4 -6 11 -8 16 -5 14 9 11 15 -7 15 -8 0 -12 -5 -9 -10z"/>
<path d="M8240 9505 c0 -8 5 -15 10 -15 6 0 10 7 10 15 0 8 -4 15 -10 15 -5 0
-10 -7 -10 -15z"/>
<path d="M8280 9409 c0 -5 5 -7 10 -4 6 3 10 8 10 11 0 2 -4 4 -10 4 -5 0 -10
-5 -10 -11z"/>
<path d="M8717 9226 c-7 -16 1 -26 20 -26 7 0 13 9 13 20 0 23 -25 27 -33 6z"/>
<path d="M8728 9183 c-10 -3 -18 -9 -18 -14 0 -15 30 -23 43 -10 14 14 -2 29
-25 24z"/>
<path d="M8380 9170 c0 -5 9 -10 21 -10 11 0 17 5 14 10 -3 6 -13 10 -21 10
-8 0 -14 -4 -14 -10z"/>
<path d="M8695 9140 c-3 -5 1 -10 9 -10 9 0 16 -4 16 -10 0 -5 -5 -10 -11 -10
-5 0 -8 -4 -4 -10 3 -6 15 -5 31 2 26 12 26 12 5 22 -12 5 -21 13 -21 18 0 11
-17 10 -25 -2z"/>
<path d="M8611 9081 c-9 -6 -6 -8 13 -8 14 0 23 3 20 8 -7 11 -15 11 -33 0z"/>
<path d="M8820 9024 c0 -8 5 -12 10 -9 6 3 10 10 10 16 0 5 -4 9 -10 9 -5 0
-10 -7 -10 -16z"/>
<path d="M9063 8705 c-8 -22 6 -33 17 -15 13 20 12 30 0 30 -6 0 -13 -7 -17
-15z"/>
<path d="M10030 8619 c0 -5 5 -7 10 -4 6 3 10 8 10 11 0 2 -4 4 -10 4 -5 0
-10 -5 -10 -11z"/>
<path d="M9990 8590 c-8 -5 -11 -12 -7 -17 5 -4 12 -1 17 7 7 10 10 11 10 3 0
-7 5 -13 10 -13 6 0 10 7 10 15 0 17 -18 19 -40 5z"/>
<path d="M144 8569 c-8 -14 15 -39 37 -39 11 0 19 -4 19 -9 0 -5 9 -11 20 -14
15 -4 20 0 20 13 0 13 -5 17 -19 13 -13 -3 -21 2 -25 15 -7 22 -42 36 -52 21z"/>
<path d="M8995 8570 c-8 -12 20 -24 35 -15 6 3 8 11 5 16 -8 12 -32 12 -40 -1z"/>
<path d="M9928 8563 c-10 -2 -18 -12 -17 -21 0 -11 2 -12 6 -4 2 6 11 12 18
12 8 0 17 5 20 10 6 10 2 11 -27 3z"/>
<path d="M9040 8541 c0 -5 -8 -11 -17 -13 -15 -3 -15 -5 -3 -10 18 -7 45 18
30 27 -6 3 -10 2 -10 -4z"/>
<path d="M10071 8533 c-7 -8 -10 -17 -7 -20 9 -9 29 13 25 25 -2 6 -10 3 -18
-5z"/>
<path d="M10110 8535 c0 -8 5 -15 10 -15 6 0 10 7 10 15 0 8 -4 15 -10 15 -5
0 -10 -7 -10 -15z"/>
<path d="M105 8530 c-3 -5 -1 -10 4 -10 6 0 11 5 11 10 0 6 -2 10 -4 10 -3 0
-8 -4 -11 -10z"/>
<path d="M9081 8501 c-21 -29 -19 -44 4 -34 8 2 12 10 9 18 -3 7 2 20 11 29 9
9 12 16 6 16 -5 0 -19 -13 -30 -29z"/>
<path d="M9180 8520 l-25 -8 28 -1 c15 -1 27 4 27 9 0 6 -1 10 -2 9 -2 -1 -14
-5 -28 -9z"/>
<path d="M9762 8508 c-6 -13 -11 -17 -11 -10 -1 20 -21 14 -21 -7 0 -28 18
-36 39 -17 10 9 27 16 39 16 12 0 22 5 22 10 0 6 -9 10 -20 10 -11 0 -20 5
-20 10 0 18 -17 10 -28 -12z"/>
<path d="M9946 8520 c7 -7 19 -7 35 -1 23 9 22 10 -10 10 -24 1 -32 -2 -25 -9z"/>
<path d="M345 8500 c-3 -5 1 -10 9 -10 9 0 16 5 16 10 0 6 -4 10 -9 10 -6 0
-13 -4 -16 -10z"/>
<path d="M10155 8498 c8 -20 -5 -24 -22 -7 -8 8 -13 8 -18 0 -3 -6 4 -15 17
-20 27 -10 48 13 28 32 -8 9 -10 8 -5 -5z"/>
<path d="M115 8480 c-3 -5 1 -10 10 -10 9 0 13 5 10 10 -3 6 -8 10 -10 10 -2
0 -7 -4 -10 -10z"/>
<path d="M477 8455 c-7 -16 8 -29 23 -20 15 9 12 35 -4 35 -8 0 -16 -7 -19
-15z"/>
<path d="M9425 8460 c3 -5 8 -10 11 -10 2 0 4 5 4 10 0 6 -5 10 -11 10 -5 0
-7 -4 -4 -10z"/>
<path d="M9622 8440 c1 -33 6 -36 32 -17 21 15 12 47 -14 47 -14 0 -18 -7 -18
-30z"/>
<path d="M10060 8460 c-12 -8 -9 -10 13 -10 15 0 27 5 27 10 0 13 -20 13 -40
0z"/>
<path d="M340 8450 c0 -5 5 -10 11 -10 5 0 7 5 4 10 -3 6 -8 10 -11 10 -2 0
-4 -4 -4 -10z"/>
<path d="M9338 8438 c-12 -12 -29 -22 -35 -20 -26 6 -14 -44 12 -56 52 -24 63
-14 59 51 -3 50 -8 53 -36 25z m22 -69 c0 -5 -4 -9 -10 -9 -5 0 -10 7 -10 16
0 8 5 12 10 9 6 -3 10 -10 10 -16z"/>
<path d="M9471 8446 c-23 -13 -23 -13 -2 -19 16 -4 21 -13 21 -36 0 -24 4 -31
20 -31 17 0 18 3 9 27 -6 15 -15 33 -20 39 -7 9 -5 16 8 23 28 16 -6 13 -36
-3z"/>
<path d="M80 8440 c0 -5 5 -10 11 -10 5 0 7 5 4 10 -3 6 -8 10 -11 10 -2 0 -4
-4 -4 -10z"/>
<path d="M840 8440 c0 -5 5 -10 10 -10 6 0 10 5 10 10 0 6 -4 10 -10 10 -5 0
-10 -4 -10 -10z"/>
<path d="M8995 8440 c4 -6 11 -8 16 -5 14 9 11 15 -7 15 -8 0 -12 -5 -9 -10z"/>
<path d="M9060 8435 c0 -8 5 -15 10 -15 6 0 10 7 10 15 0 8 -4 15 -10 15 -5 0
-10 -7 -10 -15z"/>
<path d="M9683 8438 c2 -7 14 -12 26 -11 11 2 21 -2 21 -7 0 -6 -11 -10 -24
-10 -13 0 -26 -7 -30 -15 -3 -8 -14 -15 -24 -15 -15 0 -18 -6 -14 -29 l4 -30
-46 5 c-45 5 -56 -2 -36 -22 7 -7 3 -14 -15 -22 -15 -7 -25 -8 -25 -2 0 6 -7
10 -15 10 -12 0 -11 -4 5 -20 22 -22 40 -26 40 -10 0 6 4 10 9 10 5 0 8 -11 7
-24 -4 -30 27 -59 43 -43 6 6 11 24 11 39 0 15 5 28 10 28 6 0 10 -6 10 -14 0
-8 4 -17 9 -20 14 -9 41 4 41 19 0 24 20 27 28 4 6 -15 11 -18 16 -11 4 7 4
12 0 12 -4 0 1 9 11 20 10 11 26 20 35 20 10 0 23 7 30 15 7 8 15 13 19 10 4
-2 22 5 39 16 18 10 40 19 50 19 9 0 23 10 31 21 12 20 11 21 -5 15 -9 -4 -36
-4 -60 0 -35 5 -41 9 -37 25 8 27 -21 24 -44 -5 -15 -19 -22 -21 -34 -12 -8 6
-18 19 -22 29 -8 20 -72 25 -64 5z m77 -62 c0 -3 -4 -8 -10 -11 -5 -3 -10 -1
-10 4 0 6 5 11 10 11 6 0 10 -2 10 -4z m-60 -50 c-26 -13 -44 -11 -35 5 4 5
18 9 33 9 l27 0 -25 -14z m-80 -36 c0 -5 -6 -10 -14 -10 -8 0 -18 5 -21 10 -3
6 3 10 14 10 12 0 21 -4 21 -10z"/>
<path d="M345 8420 c-3 -5 -1 -10 4 -10 6 0 11 5 11 10 0 6 -2 10 -4 10 -3 0
-8 -4 -11 -10z"/>
<path d="M570 8407 c0 -21 22 -37 50 -36 25 0 25 0 3 9 -13 5 -23 16 -23 25 0
8 -7 15 -15 15 -8 0 -15 -6 -15 -13z"/>
<path d="M128 8399 c16 -18 15 -29 -4 -29 -24 0 -11 -23 17 -31 16 -4 33 -1
44 7 18 13 17 14 -9 14 -24 0 -27 2 -16 15 15 18 13 20 -20 30 -20 6 -23 5
-12 -6z"/>
<path d="M180 8390 c0 -5 7 -10 15 -10 8 0 15 5 15 10 0 6 -7 10 -15 10 -8 0
-15 -4 -15 -10z"/>
<path d="M535 8380 c-11 -5 -14 -9 -7 -9 6 -1 12 -7 12 -15 0 -8 13 -16 30
-18 33 -5 59 5 41 16 -6 4 -16 4 -22 1 -6 -4 -13 2 -16 14 -6 23 -8 24 -38 11z"/>
<path d="M247 8314 c-10 -10 16 -44 34 -44 27 0 29 12 5 31 -26 21 -30 22 -39
13z"/>
<path d="M9943 8310 c-28 -11 -29 -21 -4 -37 28 -17 63 -5 59 21 -3 24 -23 29
-55 16z"/>
<path d="M200 8271 c0 -5 -8 -12 -17 -15 -11 -3 -8 -4 6 -3 24 2 44 27 22 27
-6 0 -11 -4 -11 -9z"/>
<path d="M95 8240 c4 -6 11 -8 16 -5 14 9 11 15 -7 15 -8 0 -12 -5 -9 -10z"/>
<path d="M150 8230 c0 -5 5 -10 11 -10 5 0 7 5 4 10 -3 6 -8 10 -11 10 -2 0
-4 -4 -4 -10z"/>
<path d="M185 8230 c3 -5 8 -10 11 -10 2 0 4 5 4 10 0 6 -5 10 -11 10 -5 0 -7
-4 -4 -10z"/>
<path d="M60 7890 c0 -5 5 -10 10 -10 6 0 10 5 10 10 0 6 -4 10 -10 10 -5 0
-10 -4 -10 -10z"/>
<path d="M40 7811 c0 -14 6 -17 25 -13 20 3 23 7 14 18 -16 20 -39 17 -39 -5z"/>
<path d="M9300 7606 c0 -9 5 -16 10 -16 6 0 10 4 10 9 0 6 -4 13 -10 16 -5 3
-10 -1 -10 -9z"/>
<path d="M10225 7581 c-3 -6 -3 -11 2 -12 4 0 18 -2 31 -3 12 -2 22 1 22 6 0
4 -4 8 -9 8 -5 0 -16 3 -24 6 -8 3 -18 1 -22 -5z"/>
<path d="M10150 7552 c0 -5 11 -19 25 -32 29 -27 48 -18 39 18 -5 16 -14 22
-35 22 -16 0 -29 -4 -29 -8z"/>
<path d="M9285 7530 c-3 -5 -1 -10 4 -10 6 0 11 5 11 10 0 6 -2 10 -4 10 -3 0
-8 -4 -11 -10z"/>
<path d="M0 3715 c0 -23 2 -24 20 -15 26 14 26 40 0 40 -15 0 -20 -7 -20 -25z"/>
<path d="M135 3710 c3 -5 11 -10 16 -10 6 0 7 5 4 10 -3 6 -11 10 -16 10 -6 0
-7 -4 -4 -10z"/>
<path d="M7040 2540 c0 -8 50 -24 56 -18 2 2 -10 9 -26 15 -17 6 -30 8 -30 3z"/>
<path d="M4541 2004 c-6 -14 -17 -27 -25 -30 -8 -3 -12 -13 -9 -25 5 -18 8
-16 31 15 14 20 29 36 34 36 13 0 9 17 -6 23 -8 3 -18 -5 -25 -19z"/>
<path d="M4861 1916 c-12 -12 -18 -26 -14 -29 13 -13 31 -7 46 17 22 34 -3 43
-32 12z"/>
<path d="M5461 1786 c-7 -9 -8 -17 -2 -20 14 -9 63 12 56 24 -9 15 -41 12 -54
-4z"/>
<path d="M4200 1760 c0 -5 5 -10 10 -10 6 0 10 5 10 10 0 6 -4 10 -10 10 -5 0
-10 -4 -10 -10z"/>
<path d="M5172 1738 c-16 -21 -26 -62 -13 -54 6 4 11 14 11 22 0 8 7 17 15 20
16 7 21 24 6 24 -5 0 -13 -6 -19 -12z"/>
<path d="M5650 1705 c-7 -9 -8 -15 -2 -15 5 0 12 7 16 15 3 8 4 15 2 15 -2 0
-9 -7 -16 -15z"/>
<path d="M5132 1625 c0 -16 2 -22 5 -12 2 9 2 23 0 30 -3 6 -5 -1 -5 -18z"/>
<path d="M5603 1610 c-3 -11 -14 -20 -24 -20 -11 0 -19 -4 -19 -10 0 -19 35
-9 70 20 l35 29 -28 1 c-21 0 -30 -6 -34 -20z"/>
<path d="M5920 1614 c0 -8 5 -12 10 -9 6 4 8 11 5 16 -9 14 -15 11 -15 -7z"/>
<path d="M5865 1591 c-3 -6 -15 -11 -27 -11 -17 0 -18 -2 -8 -15 18 -21 38
-19 45 6 8 23 1 36 -10 20z"/>
<path d="M5478 1551 c-22 -22 -22 -27 -2 -35 23 -9 67 27 51 43 -15 15 -29 13
-49 -8z"/>
<path d="M5761 1553 c-6 -10 -11 -14 -11 -9 0 20 -39 -43 -50 -82 -6 -26 -24
-55 -43 -72 -28 -25 -29 -29 -12 -29 24 0 55 21 55 38 0 6 5 11 10 11 6 0 10
14 10 30 0 38 23 84 51 103 12 9 16 18 10 21 -5 4 -14 -2 -20 -11z"/>
<path d="M5907 1548 c-7 -24 8 -39 30 -31 19 7 12 47 -8 51 -10 2 -19 -6 -22
-20z"/>
<path d="M5975 1551 c-3 -5 -1 -12 5 -16 5 -3 10 1 10 9 0 18 -6 21 -15 7z"/>
<path d="M5431 1494 c0 -11 3 -14 6 -6 3 7 2 16 -1 19 -3 4 -6 -2 -5 -13z"/>
<path d="M5408 1454 c-5 -4 -8 -19 -8 -33 0 -18 3 -22 11 -14 6 6 9 21 7 33
-1 12 -6 18 -10 14z"/>
<path d="M3903 1383 c-17 -3 -23 -11 -23 -31 1 -24 2 -25 13 -11 7 9 21 18 32
20 10 2 18 8 18 14 -2 12 -11 13 -40 8z"/>
<path d="M3540 1370 c-8 -5 -12 -12 -9 -15 8 -8 39 5 39 16 0 11 -11 11 -30
-1z"/>
<path d="M6340 1361 c0 -13 29 -35 37 -28 7 8 -15 37 -28 37 -5 0 -9 -4 -9 -9z"/>
<path d="M5375 1350 c-3 -5 -1 -10 4 -10 6 0 11 5 11 10 0 6 -2 10 -4 10 -3 0
-8 -4 -11 -10z"/>
<path d="M3210 1340 c0 -5 5 -10 11 -10 5 0 7 5 4 10 -3 6 -8 10 -11 10 -2 0
-4 -4 -4 -10z"/>
<path d="M4230 1346 c0 -16 21 -56 29 -56 12 0 62 52 57 58 -3 2 -14 -2 -26
-8 -16 -9 -25 -9 -33 -1 -11 11 -27 15 -27 7z"/>
<path d="M2917 1328 c-28 -10 -44 -45 -33 -73 7 -19 26 -19 26 0 0 8 4 15 9
15 5 0 13 10 17 23 4 12 11 25 16 28 18 12 -7 16 -35 7z"/>
<path d="M5637 1290 c-20 -27 -37 -52 -37 -55 0 -13 31 -3 48 15 20 21 45 90
33 90 -4 0 -23 -22 -44 -50z"/>
<path d="M6180 1295 c0 -37 19 -54 57 -51 35 3 39 14 9 25 -19 8 -26 18 -26
36 0 18 -5 25 -20 25 -16 0 -20 -7 -20 -35z"/>
<path d="M4023 1281 c-18 -9 -35 -22 -37 -28 -6 -16 20 -17 29 -2 4 5 18 14
31 19 13 5 24 14 24 20 0 13 -7 11 -47 -9z"/>
<path d="M3620 1270 c0 -11 2 -20 5 -20 2 0 9 9 15 20 9 16 8 20 -5 20 -8 0
-15 -9 -15 -20z"/>
<path d="M4637 1266 c-6 -15 -14 -17 -42 -12 -22 4 -35 3 -35 -4 0 -5 6 -10
14 -10 8 0 16 -7 20 -15 9 -24 36 -17 47 12 5 14 8 31 6 37 -2 5 -6 2 -10 -8z"/>
<path d="M4393 1233 c-44 -25 -54 -46 -28 -57 8 -3 15 -12 15 -21 0 -32 42 -2
46 33 1 10 5 29 9 45 4 15 6 27 4 26 -2 -1 -23 -12 -46 -26z"/>
<path d="M2860 1211 c-16 -38 -9 -48 14 -22 13 14 15 24 8 36 -7 14 -11 12
-22 -14z"/>
<path d="M2915 1210 c-3 -5 -1 -10 4 -10 6 0 11 5 11 10 0 6 -2 10 -4 10 -3 0
-8 -4 -11 -10z"/>
<path d="M3781 1199 c-45 -27 -64 -46 -51 -54 11 -7 90 51 90 66 0 11 2 12
-39 -12z"/>
<path d="M5950 1210 c0 -5 5 -10 10 -10 6 0 10 5 10 10 0 6 -4 10 -10 10 -5 0
-10 -4 -10 -10z"/>
<path d="M4176 1179 c-16 -16 -37 -31 -47 -34 -34 -11 -22 -35 16 -35 30 0 35
4 40 28 4 15 11 35 16 45 16 29 7 28 -25 -4z"/>
<path d="M2600 1170 c0 -5 5 -10 10 -10 6 0 10 5 10 10 0 6 -4 10 -10 10 -5 0
-10 -4 -10 -10z"/>
<path d="M3366 1167 c-10 -7 -17 -21 -15 -31 3 -15 8 -12 27 13 24 32 18 40
-12 18z"/>
<path d="M6413 1169 c-14 -14 -5 -49 13 -49 8 0 14 -9 14 -19 0 -11 4 -22 9
-26 8 -4 9 44 1 53 -4 3 -7 19 -9 37 -1 18 -13 19 -28 4z"/>
<path d="M5871 1152 c-12 -22 -3 -72 14 -72 7 0 12 17 13 45 0 47 -10 58 -27
27z"/>
<path d="M2841 1147 c-6 -8 -8 -17 -4 -20 7 -8 33 11 33 24 0 13 -16 11 -29
-4z"/>
<path d="M4780 1135 c-21 -23 -25 -24 -41 -10 -15 15 -17 14 -23 -11 -5 -19
-2 -33 12 -48 10 -11 22 -29 26 -39 10 -31 31 -13 32 29 0 21 4 48 8 59 20 52
19 55 -14 20z"/>
<path d="M6560 1150 c0 -5 5 -10 11 -10 5 0 7 5 4 10 -3 6 -8 10 -11 10 -2 0
-4 -4 -4 -10z"/>
<path d="M2308 1127 c-16 -13 -28 -29 -28 -37 1 -10 8 -7 23 10 12 14 28 25
35 25 6 0 12 4 13 10 1 18 -16 14 -43 -8z"/>
<path d="M3010 1135 c0 -8 4 -15 9 -15 5 0 11 7 15 15 3 9 0 15 -9 15 -8 0
-15 -7 -15 -15z"/>
<path d="M2711 1114 c-1 -6 -12 -17 -26 -24 -25 -13 -34 -30 -16 -30 18 0 54
37 48 51 -3 8 -6 9 -6 3z"/>
<path d="M3952 1093 c-7 -16 -30 -40 -52 -55 -30 -21 -39 -33 -37 -50 2 -12 8
-23 14 -25 13 -5 54 50 78 102 10 22 20 43 22 48 2 4 1 7 -4 7 -4 0 -14 -12
-21 -27z"/>
<path d="M4569 1099 c-17 -32 -35 -49 -52 -49 -8 0 -20 -7 -27 -15 -9 -11 -6
-20 19 -44 17 -17 31 -35 31 -41 0 -6 12 0 26 13 23 21 25 27 14 47 -10 18
-10 31 0 61 15 45 8 62 -11 28z"/>
<path d="M2807 1039 c-16 -39 -35 -69 -43 -69 -7 0 -21 -15 -29 -32 -9 -20
-11 -26 -3 -17 7 8 25 24 41 33 15 10 27 25 27 32 0 8 5 14 10 14 6 0 10 6 10
14 0 8 8 28 17 45 12 20 15 33 8 40 -7 6 -20 -14 -38 -60z"/>
<path d="M6205 1090 c-10 -11 -25 -22 -35 -25 -17 -6 -22 -25 -14 -62 6 -33
21 -28 34 12 8 23 18 35 30 35 18 0 30 25 23 48 -6 17 -17 15 -38 -8z"/>
<path d="M3488 1028 c-20 -30 -31 -68 -21 -68 7 0 53 72 53 84 0 14 -19 4 -32
-16z"/>
<path d="M4330 1017 c-8 -16 -27 -35 -42 -43 -20 -11 -28 -22 -28 -42 0 -36
32 -57 60 -40 27 17 31 31 17 68 -9 25 -9 33 2 39 7 5 11 17 9 27 -4 16 -7 15
-18 -9z"/>
<path d="M6777 1033 c-4 -3 -7 -13 -7 -21 0 -12 3 -12 15 -2 8 7 15 16 15 21
0 11 -14 12 -23 2z"/>
<path d="M6830 1015 c0 -8 5 -15 10 -15 6 0 10 7 10 15 0 8 -4 15 -10 15 -5 0
-10 -7 -10 -15z"/>
<path d="M2335 1010 c-3 -5 -1 -10 4 -10 6 0 11 5 11 10 0 6 -2 10 -4 10 -3 0
-8 -4 -11 -10z"/>
<path d="M3086 985 c-9 -13 -16 -32 -16 -42 0 -12 8 -5 25 19 14 20 25 39 25
42 0 14 -19 4 -34 -19z"/>
<path d="M6594 944 c3 -31 9 -60 14 -63 5 -3 11 -14 15 -23 3 -10 10 -18 16
-18 11 0 21 51 13 65 -4 5 -11 28 -17 50 -7 26 -16 41 -29 43 -16 4 -17 -2
-12 -54z"/>
<path d="M6716 985 c4 -8 8 -15 10 -15 2 0 4 7 4 15 0 8 -4 15 -10 15 -5 0 -7
-7 -4 -15z"/>
<path d="M6396 974 c-9 -24 -7 -28 9 -14 17 14 20 30 6 30 -5 0 -12 -7 -15
-16z"/>
<path d="M4934 928 c-15 -29 -18 -30 -29 -15 -16 22 -20 22 -39 -8 -16 -24
-15 -26 14 -56 16 -17 32 -40 35 -50 4 -13 16 -19 36 -19 25 0 29 4 27 23 -2
12 -8 28 -12 36 -5 8 -9 39 -8 68 1 29 -1 53 -3 53 -2 0 -12 -14 -21 -32z"/>
<path d="M6422 946 c-22 -10 -23 -15 -17 -76 4 -36 10 -69 14 -75 11 -16 5
-103 -9 -120 -20 -24 -30 -18 -24 14 5 23 2 29 -15 34 -15 4 -21 13 -22 34 0
28 0 28 -12 5 -8 -17 -8 -32 0 -52 6 -15 7 -34 2 -41 -22 -36 18 -194 51 -201
25 -6 50 3 50 18 0 8 9 14 19 14 10 0 21 6 23 13 7 18 -3 87 -12 87 -5 0 -12
15 -16 33 -17 69 -7 101 31 91 35 -9 38 19 15 126 -11 51 -20 97 -20 102 0 11
-30 8 -58 -6z"/>
<path d="M6736 942 c-9 -15 4 -42 20 -42 18 0 18 11 1 35 -9 11 -16 14 -21 7z"/>
<path d="M3680 921 c0 -4 -16 -25 -35 -45 -35 -38 -52 -92 -20 -66 8 7 15 18
15 26 0 7 6 17 13 21 12 8 47 57 47 68 0 3 -4 5 -10 5 -5 0 -10 -4 -10 -9z"/>
<path d="M4065 875 c-55 -62 -59 -69 -51 -90 6 -18 36 -9 36 11 0 8 6 14 13
14 6 0 17 12 23 28 14 36 33 92 31 92 -1 0 -25 -25 -52 -55z"/>
<path d="M5780 919 c0 -5 5 -7 10 -4 6 3 10 8 10 11 0 2 -4 4 -10 4 -5 0 -10
-5 -10 -11z"/>
<path d="M4724 887 c-18 -21 -46 -39 -68 -41 -5 -1 -14 -9 -19 -18 -9 -13 -3
-25 29 -61 21 -25 42 -46 46 -46 4 -1 15 10 24 24 14 21 15 31 5 51 -8 19 -8
36 -1 66 14 49 8 57 -16 25z"/>
<path d="M6881 894 c0 -11 3 -14 6 -6 3 7 2 16 -1 19 -3 4 -6 -2 -5 -13z"/>
<path d="M3265 890 c-3 -5 -1 -10 4 -10 6 0 11 5 11 10 0 6 -2 10 -4 10 -3 0
-8 -4 -11 -10z"/>
<path d="M1795 880 c-3 -5 -1 -10 4 -10 6 0 11 5 11 10 0 6 -2 10 -4 10 -3 0
-8 -4 -11 -10z"/>
<path d="M3230 851 c-15 -29 -12 -33 10 -14 21 19 26 33 10 33 -5 0 -14 -9
-20 -19z"/>
<path d="M5795 860 c-3 -5 -8 -38 -12 -73 -5 -53 -3 -65 11 -70 11 -4 18 1 22
18 3 13 3 29 -1 34 -3 6 -1 11 5 11 6 0 15 11 20 25 5 14 17 28 25 31 8 4 15
10 15 15 0 12 -27 12 -32 0 -1 -4 -13 -11 -25 -15 -18 -6 -20 -4 -16 14 6 21
-1 27 -12 10z"/>
<path d="M6860 845 c0 -16 9 -19 34 -9 9 3 13 11 10 16 -4 6 -10 5 -15 -3 -6
-10 -9 -11 -9 -1 0 6 -4 12 -10 12 -5 0 -10 -7 -10 -15z"/>
<path d="M5120 826 c0 -22 11 -46 21 -46 5 0 9 14 9 30 0 20 -5 30 -15 30 -8
0 -15 -6 -15 -14z"/>
<path d="M6965 830 c4 -6 11 -8 16 -5 14 9 11 15 -7 15 -8 0 -12 -5 -9 -10z"/>
<path d="M2746 822 c-9 -14 -36 -104 -35 -117 0 -5 11 16 25 48 14 33 23 64
21 70 -2 8 -5 8 -11 -1z"/>
<path d="M6607 793 c-3 -16 -1 -29 4 -31 5 -2 9 -14 9 -26 0 -12 9 -40 19 -62
11 -23 22 -53 24 -68 3 -26 24 -49 37 -41 4 2 3 26 -2 52 -5 26 -12 66 -15 88
-3 22 -13 49 -23 60 -9 11 -20 28 -23 38 -9 26 -24 21 -30 -10z"/>
<path d="M3201 794 c0 -11 3 -14 6 -6 3 7 2 16 -1 19 -3 4 -6 -2 -5 -13z"/>
<path d="M6137 783 c-8 -40 1 -47 29 -21 22 21 22 24 7 36 -24 18 -30 15 -36
-15z"/>
<path d="M6237 789 c-4 -16 -3 -18 9 -8 16 13 19 29 5 29 -5 0 -11 -9 -14 -21z"/>
<path d="M4476 781 c-10 -11 -27 -21 -39 -23 -27 -4 -43 -57 -21 -72 8 -6 25
-29 39 -51 14 -23 25 -33 25 -23 0 9 11 25 25 36 29 23 33 57 8 70 -12 7 -15
18 -10 46 6 40 -2 45 -27 17z"/>
<path d="M6770 777 c0 -8 7 -18 16 -21 11 -4 14 -1 12 11 -4 21 -28 30 -28 10z"/>
<path d="M7036 774 c-8 -21 -8 -24 3 -24 12 0 22 28 12 35 -5 3 -12 -2 -15
-11z"/>
<path d="M3850 751 c-12 -24 -13 -31 -1 -31 5 0 11 11 13 25 6 30 2 32 -12 6z"/>
<path d="M5150 741 c0 -12 5 -21 10 -21 6 0 10 6 10 14 0 8 -4 18 -10 21 -5 3
-10 -3 -10 -14z"/>
<path d="M6201 751 c-7 -5 -11 -15 -9 -22 3 -10 8 -7 17 9 13 24 12 26 -8 13z"/>
<path d="M6052 713 c-9 -30 -9 -42 4 -60 8 -13 16 -23 18 -23 3 0 12 20 22 45
16 44 16 46 -2 60 -27 20 -29 19 -42 -22z"/>
<path d="M5055 729 c-4 -6 -5 -13 -2 -16 7 -7 27 6 27 18 0 12 -17 12 -25 -2z"/>
<path d="M6260 729 c0 -5 5 -7 10 -4 6 3 10 8 10 11 0 2 -4 4 -10 4 -5 0 -10
-5 -10 -11z"/>
<path d="M5063 684 c-45 -45 -53 -64 -28 -64 8 0 15 -6 15 -14 0 -7 6 -19 14
-26 8 -6 16 -21 18 -33 2 -13 10 -22 19 -21 14 1 15 -5 8 -35 -5 -20 -8 -43
-8 -51 0 -27 18 13 24 56 17 104 17 125 4 122 -10 -2 -15 13 -19 53 l-5 57
-42 -44z"/>
<path d="M4258 693 c-7 -16 -24 -39 -38 -53 -49 -48 -52 -55 -40 -99 21 -79
57 -43 80 79 5 25 12 57 16 73 3 15 3 27 0 27 -4 0 -12 -12 -18 -27z"/>
<path d="M3796 681 c-22 -24 -38 -79 -25 -87 6 -3 11 -4 12 -3 8 14 47 100 47
104 0 11 -18 4 -34 -14z"/>
<path d="M3372 663 c-25 -31 -33 -69 -9 -43 13 15 40 70 34 70 -2 0 -13 -12
-25 -27z"/>
<path d="M4884 655 c-3 -14 -11 -26 -18 -26 -6 -1 -16 -2 -22 -3 -6 0 -18 -9
-28 -19 -23 -22 -14 -63 19 -89 13 -10 27 -27 30 -38 5 -16 10 -18 26 -9 36
19 43 52 21 88 -16 26 -18 40 -11 64 12 41 11 57 -1 57 -5 0 -12 -11 -16 -25z"/>
<path d="M6193 626 c-9 -28 -8 -34 3 -29 8 3 14 11 14 18 0 7 3 20 6 29 3 9 2
16 -3 16 -5 0 -14 -15 -20 -34z"/>
<path d="M2090 615 c-10 -12 -10 -15 4 -15 9 0 16 7 16 15 0 8 -2 15 -4 15 -2
0 -9 -7 -16 -15z"/>
<path d="M7116 602 c-6 -10 16 -92 26 -92 4 0 1 18 -7 41 -8 23 -12 45 -9 50
3 5 3 9 0 9 -3 0 -7 -3 -10 -8z"/>
<path d="M1785 589 c-4 -6 -5 -13 -2 -16 7 -7 27 6 27 18 0 12 -17 12 -25 -2z"/>
<path d="M4655 567 c-8 -19 -28 -45 -45 -57 -17 -12 -29 -24 -26 -27 3 -3 1
-15 -4 -28 -7 -20 -3 -28 26 -53 18 -16 34 -34 34 -41 0 -6 9 -2 20 9 11 11
25 20 30 20 16 0 12 70 -4 76 -22 9 -27 31 -16 81 13 57 5 68 -15 20z"/>
<path d="M6800 542 c0 -26 5 -53 12 -60 9 -9 9 -15 0 -24 -18 -18 -15 -27 13
-38 20 -8 25 -16 25 -44 0 -45 -17 -55 -31 -19 -8 22 -12 24 -19 13 -13 -20
-13 -77 0 -85 6 -3 10 -17 10 -29 0 -13 9 -35 20 -48 11 -14 22 -42 24 -62 4
-36 30 -73 40 -58 7 11 -9 120 -23 154 -8 22 -6 34 12 67 18 34 20 44 10 61
-7 11 -13 28 -13 37 0 10 -7 31 -15 47 -8 15 -15 45 -15 66 0 29 -6 41 -25 54
l-25 16 0 -48z"/>
<path d="M7057 563 c-12 -12 -7 -41 8 -47 11 -4 15 2 15 24 0 29 -9 38 -23 23z"/>
<path d="M2576 545 c-3 -8 -1 -15 4 -15 6 0 10 7 10 15 0 8 -2 15 -4 15 -2 0
-6 -7 -10 -15z"/>
<path d="M6927 525 c-4 -8 -2 -17 3 -20 6 -3 10 -20 9 -38 0 -18 4 -51 9 -74
6 -30 6 -43 -1 -43 -7 0 -7 -4 1 -12 7 -7 12 -25 12 -40 0 -15 5 -28 10 -28 6
0 10 -21 10 -47 0 -42 1 -45 14 -28 13 18 14 18 25 -3 15 -29 4 -72 -19 -72
-20 0 -34 -26 -19 -36 6 -3 9 -16 8 -27 -3 -50 0 -57 30 -57 27 0 28 1 25 45
-2 31 0 45 9 45 7 0 8 3 2 8 -5 4 -11 23 -11 42 -3 88 -28 174 -57 198 -11 10
-12 22 -5 60 9 41 7 56 -11 95 -22 49 -35 58 -44 32z"/>
<path d="M4017 500 c-3 -11 -1 -20 4 -20 5 0 9 9 9 20 0 11 -2 20 -4 20 -2 0
-6 -9 -9 -20z"/>
<path d="M6090 510 c0 -5 5 -10 10 -10 6 0 10 5 10 10 0 6 -4 10 -10 10 -5 0
-10 -4 -10 -10z"/>
<path d="M6638 503 c-39 -10 -45 -98 -11 -165 10 -21 21 -28 43 -28 17 0 30 3
30 7 0 24 -34 193 -39 192 -3 -1 -13 -3 -23 -6z"/>
<path d="M2550 478 c0 -19 2 -20 10 -8 13 19 13 30 0 30 -5 0 -10 -10 -10 -22z"/>
<path d="M3566 481 c-4 -7 -5 -15 -2 -18 9 -9 19 4 14 18 -4 11 -6 11 -12 0z"/>
<path d="M7032 458 c2 -19 7 -26 20 -25 10 1 18 9 18 19 0 10 7 18 15 18 20 0
35 -32 29 -61 l-5 -24 11 24 c6 14 8 37 5 52 -6 25 -10 27 -51 26 -41 -2 -44
-4 -42 -29z"/>
<path d="M3977 442 c-15 -16 -27 -34 -27 -40 0 -7 -7 -23 -16 -36 -18 -29 -2
-45 22 -22 8 9 13 16 9 16 -3 0 8 13 25 30 29 28 39 63 22 74 -5 3 -21 -7 -35
-22z"/>
<path d="M5227 450 c-9 -11 -23 -17 -31 -14 -21 8 -46 -44 -35 -73 5 -13 15
-23 24 -23 8 0 15 -6 15 -12 0 -7 9 -24 19 -37 l19 -24 27 27 c23 23 26 32 20
64 -4 20 -11 39 -16 40 -5 2 -9 19 -9 38 0 39 -8 42 -33 14z"/>
<path d="M7165 460 c3 -5 8 -10 11 -10 2 0 4 5 4 10 0 6 -5 10 -11 10 -5 0 -7
-4 -4 -10z"/>
<path d="M2190 450 c0 -5 5 -10 10 -10 6 0 10 5 10 10 0 6 -4 10 -10 10 -5 0
-10 -4 -10 -10z"/>
<path d="M3514 411 c-14 -22 -23 -45 -19 -51 9 -14 25 -3 25 18 0 10 9 23 20
30 21 13 28 42 10 42 -5 0 -21 -18 -36 -39z"/>
<path d="M3125 420 c-3 -11 -11 -20 -16 -20 -5 0 -9 -12 -9 -26 0 -26 1 -26
25 10 14 20 25 41 25 46 0 18 -19 10 -25 -10z"/>
<path d="M5034 412 c-17 -21 -25 -24 -35 -15 -11 9 -19 7 -37 -7 -44 -36 -52
-130 -10 -130 11 0 32 -13 46 -30 45 -51 82 -35 82 37 0 29 -5 45 -17 51 -15
9 -15 17 -7 66 6 31 8 56 5 55 -3 0 -16 -12 -27 -27z"/>
<path d="M1850 401 c-7 -15 -7 -21 0 -21 12 0 25 28 17 36 -3 3 -10 -4 -17
-15z"/>
<path d="M4398 360 c-34 -33 -48 -54 -48 -73 0 -20 5 -27 20 -27 11 0 20 -7
20 -15 0 -8 7 -15 15 -15 10 0 15 10 15 29 0 17 5 33 10 36 6 4 8 15 5 26 -4
13 -2 19 9 19 10 0 16 -9 16 -22 0 -30 15 -54 24 -39 4 6 -1 25 -11 43 -10 18
-20 44 -23 58 -5 25 -5 25 -52 -20z"/>
<path d="M7250 390 c0 -5 5 -10 11 -10 5 0 7 5 4 10 -3 6 -8 10 -11 10 -2 0
-4 -4 -4 -10z"/>
<path d="M6240 380 c0 -5 5 -10 10 -10 6 0 10 5 10 10 0 6 -4 10 -10 10 -5 0
-10 -4 -10 -10z"/>
<path d="M7050 370 c0 -5 5 -10 11 -10 5 0 7 5 4 10 -3 6 -8 10 -11 10 -2 0
-4 -4 -4 -10z"/>
<path d="M7124 370 c3 -8 9 -23 12 -32 4 -10 10 -18 15 -18 15 0 10 16 -12 41
-12 13 -19 17 -15 9z"/>
<path d="M1824 359 c-3 -6 -1 -16 5 -22 8 -8 11 -5 11 11 0 24 -5 28 -16 11z"/>
<path d="M2713 358 c-11 -14 -33 -75 -33 -89 0 -5 4 -9 8 -9 7 0 52 91 52 105
0 10 -18 5 -27 -7z"/>
<path d="M6316 315 c-31 -28 -46 -32 -46 -10 0 8 -6 15 -13 15 -10 0 -14 -17
-14 -62 0 -35 2 -69 4 -75 8 -19 25 -15 22 5 -7 45 37 105 74 100 17 -2 22 2
22 21 0 34 -17 36 -49 6z"/>
<path d="M7077 323 c-13 -12 -7 -33 8 -33 8 0 15 9 15 20 0 20 -11 26 -23 13z"/>
<path d="M2328 281 c-16 -22 -28 -49 -28 -62 0 -19 4 -16 28 17 15 21 28 49
29 62 1 12 1 22 0 22 -1 0 -14 -18 -29 -39z"/>
<path d="M4809 271 c-14 -15 -31 -37 -38 -49 -13 -25 -6 -82 10 -82 6 0 7 -4
4 -10 -3 -5 0 -10 7 -10 7 0 19 -9 26 -20 14 -22 51 -27 70 -8 18 18 16 108
-3 108 -8 0 -15 6 -15 14 0 7 -6 19 -14 26 -8 6 -16 22 -18 34 l-3 23 -26 -26z"/>
<path d="M7100 284 c-14 -7 -19 -14 -11 -14 8 0 11 -6 7 -16 -3 -8 -1 -24 4
-35 6 -10 7 -19 2 -19 -5 0 -7 -11 -4 -25 2 -14 11 -25 19 -25 8 0 11 -4 8
-10 -11 -17 -17 -106 -7 -91 5 7 14 11 20 7 15 -9 23 21 12 48 -5 13 -7 42 -5
65 3 30 -2 47 -17 67 -18 22 -19 30 -10 45 7 11 11 19 10 18 -2 -1 -14 -7 -28
-15z"/>
<path d="M5440 278 c0 -22 17 -41 29 -34 19 12 13 46 -9 46 -11 0 -20 -6 -20
-12z"/>
<path d="M3760 260 c0 -10 -6 -23 -14 -27 -8 -4 -26 -25 -41 -47 -37 -55 -18
-70 29 -22 29 29 36 43 36 76 0 22 -2 40 -5 40 -3 0 -5 -9 -5 -20z"/>
<path d="M4200 240 c-6 -21 -15 -42 -20 -45 -5 -3 -21 -25 -35 -49 -22 -37
-24 -47 -14 -74 11 -32 29 -43 29 -18 0 7 11 25 24 39 13 14 21 28 18 31 -3 3
-1 6 4 6 6 0 11 34 12 75 1 41 -1 75 -3 75 -2 0 -9 -18 -15 -40z"/>
<path d="M5270 234 c0 -8 5 -12 10 -9 6 3 10 10 10 16 0 5 -4 9 -10 9 -5 0
-10 -7 -10 -16z"/>
<path d="M5345 215 c-23 -41 -16 -123 11 -142 31 -21 42 -31 47 -45 3 -10 9
-8 26 6 30 27 30 101 0 109 -16 4 -20 12 -18 39 3 54 0 63 -25 64 -18 1 -29
-7 -41 -31z"/>
<path d="M7306 222 c-3 -6 -1 -14 5 -17 15 -10 25 3 12 16 -7 7 -13 7 -17 1z"/>
<path d="M10303 208 c-2 -5 -16 -8 -31 -8 -15 0 -40 -7 -56 -15 -23 -12 -35
-13 -60 -4 -37 13 -85 -4 -129 -45 -17 -16 -27 -20 -27 -11 0 16 -41 5 -102
-26 -21 -11 -38 -15 -38 -9 0 5 -13 10 -30 10 -16 0 -30 -5 -30 -10 0 -6 -12
-10 -27 -9 -51 2 -128 -14 -136 -28 -8 -13 -11 -12 -25 0 -14 12 -22 12 -47 1
-16 -7 -26 -13 -20 -14 5 0 4 -5 -3 -12 -7 -7 -12 -16 -12 -20 0 -4 187 -8
415 -8 l415 0 0 109 0 109 -26 -2 c-14 0 -28 -4 -31 -8z"/>
<path d="M1936 184 c-4 -9 -4 -19 -1 -22 6 -6 35 18 35 29 0 16 -28 10 -34 -7z"/>
<path d="M3271 156 c-16 -29 -22 -50 -16 -62 6 -16 9 -15 16 12 5 17 16 37 24
44 15 13 21 50 7 50 -4 0 -18 -20 -31 -44z"/>
<path d="M6585 190 c-4 -6 -15 -8 -25 -5 -29 9 -40 -59 -17 -108 15 -34 23
-34 32 0 3 15 19 43 35 63 22 28 26 40 18 48 -15 15 -35 15 -43 2z"/>
<path d="M4634 173 c-15 -44 -35 -81 -54 -98 -11 -10 -20 -31 -20 -47 l0 -28
70 0 70 0 -6 28 c-4 15 -15 34 -26 43 -16 12 -20 28 -20 67 0 54 -5 64 -14 35z"/>
<path d="M5204 176 c-3 -7 -4 -17 -3 -22 4 -25 -3 -40 -23 -49 -17 -7 -24 -20
-26 -49 -4 -48 6 -56 77 -56 44 0 52 3 47 16 -3 9 -6 27 -6 40 0 17 -6 24 -20
24 -21 0 -24 11 -22 78 2 32 -14 44 -24 18z"/>
<path d="M7320 150 c0 -20 25 -38 36 -27 7 6 -18 47 -28 47 -5 0 -8 -9 -8 -20z"/>
<path d="M1604 135 c-9 -14 -14 -28 -11 -31 5 -6 57 39 57 50 0 16 -31 3 -46
-19z"/>
<path d="M6957 139 c-4 -16 -3 -18 9 -8 7 6 11 15 8 20 -8 13 -11 11 -17 -12z"/>
<path d="M7198 132 c5 -27 29 -58 38 -50 7 7 -7 38 -17 38 -5 0 -9 6 -9 14 0
8 -4 17 -9 20 -4 3 -6 -7 -3 -22z"/>
<path d="M2861 115 c-25 -38 -35 -81 -20 -91 5 -3 9 1 9 9 0 8 8 25 18 38 21
26 37 79 25 79 -5 0 -19 -16 -32 -35z"/>
<path d="M5532 90 c0 -19 2 -27 5 -17 2 9 2 25 0 35 -3 9 -5 1 -5 -18z"/>
<path d="M7343 80 c0 -34 8 -37 32 -13 16 16 16 17 -1 30 -26 19 -31 16 -31
-17z"/>
<path d="M1327 59 c-3 -13 -1 -19 6 -16 15 5 22 37 9 37 -5 0 -12 -9 -15 -21z"/>
<path d="M2446 42 c-19 -30 -21 -38 -9 -40 14 -4 73 44 73 59 0 4 -9 9 -20 12
-16 4 -26 -3 -44 -31z"/>
<path d="M6834 47 c3 -11 1 -17 -7 -16 -26 3 -37 -2 -37 -16 0 -10 10 -15 30
-15 32 0 40 21 19 50 -9 13 -10 12 -5 -3z"/>
<path d="M3965 27 c-4 -10 -5 -21 -1 -24 10 -10 18 4 13 24 -4 17 -4 17 -12 0z"/>
<path d="M9495 27 c-4 -10 -5 -21 -1 -24 10 -10 18 4 13 24 -4 17 -4 17 -12 0z"/>
<path d="M1305 19 c-10 -15 1 -23 20 -15 9 3 13 10 10 16 -8 13 -22 13 -30 -1z"/>
<path d="M5007 23 c-13 -12 -7 -23 13 -23 13 0 18 5 14 15 -7 16 -17 19 -27 8z"/>
<path d="M7240 16 c0 -9 5 -16 10 -16 6 0 10 4 10 9 0 6 -4 13 -10 16 -5 3
-10 -1 -10 -9z"/>
<path d="M7407 23 c-15 -14 -5 -23 26 -23 30 1 31 1 13 15 -22 17 -29 18 -39
8z"/>
<path d="M9329 9 c-9 -5 15 -9 69 -9 46 0 81 4 78 9 -7 11 -129 12 -147 0z"/>
<path d="M7158 3 c7 -3 16 -2 19 1 4 3 -2 6 -13 5 -11 0 -14 -3 -6 -6z"/>
</g>
</svg>
